<?xml version="1.0" encoding="utf-8" ?><svg xmlns="http://www.w3.org/2000/svg" xmlns:xlink="http://www.w3.org/1999/xlink" width="617" height="284" viewBox="200 376 617 284"><defs><linearGradient id="gradient_0" gradientUnits="userSpaceOnUse" x1="323.1293" y1="586.61932" x2="415.97101" y2="435.8663"><stop offset="0" stop-color="#C5905C"/><stop offset="1" stop-color="#E9BB83"/></linearGradient></defs><path fill="url(#gradient_0)" transform="scale(2 2)" d="M309.451 402.311C316.09 400.057 316.411 396.284 323.968 400.185C343.294 407.883 362.726 415.316 382.256 422.481C386.297 423.996 418.399 435.311 418.721 437.243C420.806 449.736 418.485 464.784 419.997 477.648C426.742 479.573 431.559 481.055 438.892 484.449C465.476 496.75 482.592 529.112 476.29 558.006C476.243 558.12 476.196 558.234 476.149 558.347C473.515 573.167 462.551 591.054 450.074 599.615C436.704 608.79 426.445 609.49 415.457 622.041L414.185 621.776C411.014 627.465 409.945 630.766 407.931 636.996C405.881 636.949 403.179 636.802 401.187 636.87L399.805 636.5C386.469 637.505 371.662 637.038 358.188 636.906C345.382 636.973 332.647 636.67 319.82 636.878C316.247 636.986 310.653 636.601 308.03 638.77C304.394 636.251 297.988 632.902 293.926 630.572C290.809 629.535 280.561 623.351 277.479 621.479C270.713 618.498 256.549 609.758 249.457 605.896C241.507 601.567 227.77 594.787 220.779 590.023C219.835 579.168 220.414 559.637 220.288 548.125C219.942 516.716 219.845 485.305 219.998 453.895C224.81 450.383 229.161 447.922 234.442 445.171C238.088 444.698 239.556 444.918 242.727 446.915L243.03 448.184C244.144 447.782 251.792 443.154 253.039 442.411C253.068 439.374 252.953 437.103 253.626 434.123C259.164 430.458 267.966 425.648 273.839 422.32C285.613 415.646 297.592 408.807 309.451 402.311Z"/><defs><linearGradient id="gradient_1" gradientUnits="userSpaceOnUse" x1="227.65266" y1="595.04126" x2="309.16699" y2="511.72577"><stop offset="0" stop-color="#6C3B26"/><stop offset="1" stop-color="#BC8354"/></linearGradient></defs><path fill="url(#gradient_1)" transform="scale(2 2)" d="M234.442 445.171C238.088 444.698 239.556 444.918 242.727 446.915L243.03 448.184C240.277 449.781 235.274 452.329 233.183 454.244L233.004 455.13C234.054 456.071 233.581 455.875 234.836 456.233L236.543 457.326C237.583 457.873 239.82 459.136 240.817 459.423C242.547 460.437 245.509 462.051 247.041 463.165C250.662 464.879 254.49 467.14 258.012 469.119L256.841 472.09L254.794 474.242C257.733 475.338 274.516 484.77 276.002 486.896C281.933 490.277 289.03 494.772 295.095 497.551C300.944 500.231 302.594 502.954 306.857 505.575L308.341 505.387C309.495 507.15 308.688 510.615 308.412 513.029C307.364 514.073 307.965 513.751 306.582 514.094L305.327 514.091L305.058 514.14C304.931 516.818 305.074 517.148 302.554 518.178C298.478 517.957 293.009 513.663 289.088 511.328L288.86 511.986C287.67 511.384 286.931 511.091 285.922 510.187L285.942 511.427L285.201 511.869L285.19 511.607C283.226 512.539 283.647 513.031 282.235 513.751C282.2 513.81 277.535 524.845 277.573 524.645C278.893 525.269 281.106 525.98 281.55 527.029L279.623 526.632C279.456 529.327 281.275 529.539 280.358 531.282C278.878 531.622 278.105 531.183 276.657 530.693L277.888 532.983L279.854 534.178C284.593 536.774 308.294 550.573 311.16 549.826L312.209 550.789C318.26 547.099 318.216 550.412 322.296 549.188C324.006 547.543 323.508 548.477 324.149 546.452C324.323 545.788 324.668 544.871 324.889 544.23C325.82 543.434 327.036 542.596 328.04 541.858L327.37 540.64C335.725 536.888 348.798 527.455 356.433 522.016C357.797 521.044 361.054 513.873 363.227 511.749C365.033 511.165 368.064 506.536 370.765 504.349L371.066 504.746L370.726 506.261C370.767 506.264 380.734 499.265 382.097 498.376C385.383 502.64 388.9 507.058 392 511.433C383.675 515.906 381.921 516.489 374.431 523.195C372.884 526.517 365.988 533.693 366.055 537.444L366.292 537.963C365.382 540.731 363.349 545.158 363.585 548C363.745 549.922 364.561 552.161 364.349 554.056C364.017 557.038 346.485 566.34 343.141 568.349C343.399 572.29 343.785 572.372 346.951 574.45C350.414 572.308 359.318 566.558 362.599 565.178C363.799 566.207 363.676 566.868 364.265 568.64L363.033 568.325C364.848 574.18 366.343 577.854 369.413 583.241C370.254 584.718 372.406 588.196 372.961 589.54C370.736 588.097 369.873 585.324 367.666 582.85L366.811 583.649C367.628 585.163 368.461 586.668 369.307 588.165C370.175 589.689 370.131 589.893 370.219 591.579C369.511 592.752 369.464 592.684 368.342 593.517C367.851 595.477 363.004 598.21 361.028 598.749L360.79 599.411C361.947 600.828 363.355 600.985 364.988 602.141C368.136 602.174 380.541 592.465 382.528 594.2L381.844 594.627C378.221 596.857 373.347 598.957 369.5 601.191C358.626 607.598 347.901 614.256 337.334 621.16C334.407 623.108 315.76 635.757 314.015 636.245C315.948 636.301 318.052 636.191 319.82 636.878C316.247 636.986 310.653 636.601 308.03 638.77C304.394 636.251 297.988 632.902 293.926 630.572C290.809 629.535 280.561 623.351 277.479 621.479C270.713 618.498 256.549 609.758 249.457 605.896C241.507 601.567 227.77 594.787 220.779 590.023C219.835 579.168 220.414 559.637 220.288 548.125C219.942 516.716 219.845 485.305 219.998 453.895C224.81 450.383 229.161 447.922 234.442 445.171Z"/><defs><linearGradient id="gradient_2" gradientUnits="userSpaceOnUse" x1="314.92661" y1="509.83923" x2="336.17331" y2="556.26837"><stop offset="0" stop-color="#5F6B4F"/><stop offset="1" stop-color="#A3A171"/></linearGradient></defs><path fill="url(#gradient_2)" transform="scale(2 2)" d="M363.227 511.749C365.033 511.165 368.064 506.536 370.765 504.349L371.066 504.746L370.726 506.261C370.767 506.264 380.734 499.265 382.097 498.376C385.383 502.64 388.9 507.058 392 511.433C383.675 515.906 381.921 516.489 374.431 523.195C369.329 526.844 366.912 533.999 362.379 537.93C353.036 546.034 341.989 552.18 331.347 558.375C327.023 560.879 313.554 569.321 308.658 568.166C298.085 565.672 283.177 555.445 272.926 550.606C269.062 548.666 255.353 542.246 251.691 540.088C254.366 540.194 264.925 533.388 268.141 531.639C266.32 529.881 261.891 530.933 259.257 528.365L259.508 528.131C264.894 529.595 274.406 533.03 279.323 535.358L279.854 534.178C284.593 536.774 308.294 550.573 311.16 549.826L312.209 550.789C318.26 547.099 318.216 550.412 322.296 549.188C324.006 547.543 323.508 548.477 324.149 546.452C324.323 545.788 324.668 544.871 324.889 544.23C325.82 543.434 327.036 542.596 328.04 541.858L327.37 540.64C335.725 536.888 348.798 527.455 356.433 522.016C357.797 521.044 361.054 513.873 363.227 511.749Z"/><defs><linearGradient id="gradient_3" gradientUnits="userSpaceOnUse" x1="292.97122" y1="547.12579" x2="296.52878" y2="541.87421"><stop offset="0" stop-color="#5E5130"/><stop offset="1" stop-color="#896E42"/></linearGradient></defs><path fill="url(#gradient_3)" transform="scale(2 2)" d="M279.854 534.178C284.593 536.774 308.294 550.573 311.16 549.826L312.209 550.789C307.574 553.755 305.124 548.674 300.322 546.981L299.736 547.28L300.632 549.217C297.637 548.548 278.806 538.065 275.449 535.976C277.549 536.571 280.677 537.434 282.822 537.154C281.938 536.098 280.67 535.842 279.323 535.358L279.854 534.178Z"/><path fill="#9F9C70" transform="scale(2 2)" d="M328.04 541.858C336.958 535.969 344.466 530.774 354.777 527.894C349.764 531.146 340.974 536.982 335.926 539.729C332.794 542.109 327.863 546.581 324.149 546.452C324.323 545.788 324.668 544.871 324.889 544.23C325.82 543.434 327.036 542.596 328.04 541.858Z"/><defs><linearGradient id="gradient_4" gradientUnits="userSpaceOnUse" x1="269.2858" y1="489.06158" x2="262.8645" y2="499.86841"><stop offset="0" stop-color="#CBC2B3"/><stop offset="1" stop-color="#EEE9DD"/></linearGradient></defs><path fill="url(#gradient_4)" transform="scale(2 2)" d="M226.996 459.792C231.443 461.689 239.966 467.023 244.584 469.641C255.013 475.471 265.486 481.223 276.002 486.896C281.933 490.277 289.03 494.772 295.095 497.551C300.944 500.231 302.594 502.954 306.857 505.575L308.341 505.387C309.495 507.15 308.688 510.615 308.412 513.029C307.364 514.073 307.965 513.751 306.582 514.094L305.327 514.091L305.058 514.14C304.931 516.818 305.074 517.148 302.554 518.178C298.478 517.957 293.009 513.663 289.088 511.328L288.86 511.986C287.67 511.384 286.931 511.091 285.922 510.187L285.942 511.427L285.201 511.869L285.19 511.607C283.226 512.539 283.647 513.031 282.235 513.751C282.2 513.81 277.535 524.845 277.573 524.645L276.241 524.383C272.661 522.061 268.909 520.016 265.017 518.265C260.316 515.998 235.354 503.197 232.839 500.714C231.229 499.884 229.546 499.086 227.916 498.287L227.577 488.744C226.859 483.253 226.867 465.526 226.996 459.792Z"/><path fill="#8D5534" transform="scale(2 2)" d="M229.09 479.65L230.873 481.378L232.036 482.502C235.716 484.893 237.829 486.199 241.749 488.103C247.065 490.391 251.747 492.139 257.176 494.106C260.299 495.264 267.221 497.736 269.635 499.622C274.764 501.999 284.575 507.712 289.088 511.328L288.86 511.986C287.67 511.384 286.931 511.091 285.922 510.187L285.942 511.427L285.201 511.869L285.19 511.607C283.226 512.539 283.647 513.031 282.235 513.751C282.2 513.81 277.535 524.845 277.573 524.645L276.241 524.383C272.661 522.061 268.909 520.016 265.017 518.265C260.316 515.998 235.354 503.197 232.839 500.714C231.229 499.884 229.546 499.086 227.916 498.287L227.577 488.744C227.781 485.36 227.618 482.654 229.09 479.65Z"/><path fill="#A77C57" transform="scale(2 2)" d="M269.635 499.622C274.764 501.999 284.575 507.712 289.088 511.328L288.86 511.986C287.67 511.384 286.931 511.091 285.922 510.187L285.942 511.427L285.201 511.869L285.19 511.607C283.226 512.539 283.647 513.031 282.235 513.751C282.2 513.81 277.535 524.845 277.573 524.645L276.241 524.383C277.959 518.94 275.949 514.872 282.186 512.905C282.365 512.714 282.688 512.032 282.829 511.764C282.354 505.345 272.874 505.189 269.635 499.622Z"/><path fill="#60391C" transform="scale(2 2)" d="M229.09 479.65L230.873 481.378C230.24 485.604 230.944 493.908 231.291 498.371C232.403 499.55 232.651 499.402 232.839 500.714C231.229 499.884 229.546 499.086 227.916 498.287L227.577 488.744C227.781 485.36 227.618 482.654 229.09 479.65Z"/><path fill="#7C4B2D" transform="scale(2 2)" d="M241.749 488.103C247.065 490.391 251.747 492.139 257.176 494.106C256.114 495.454 256.005 495.379 254.472 496.036C252.524 496.029 246.607 492.68 242.535 492.004C241.664 490.618 241.837 489.779 241.749 488.103Z"/><path fill="#7C4B2D" transform="scale(2 2)" d="M232.036 482.502C235.716 484.893 237.829 486.199 241.749 488.103C241.837 489.779 241.664 490.618 242.535 492.004C237.9 491.324 231.453 487.97 232.036 482.502Z"/><path fill="#8B6A49" transform="scale(2 2)" d="M226.996 459.792C231.443 461.689 239.966 467.023 244.584 469.641C255.013 475.471 265.486 481.223 276.002 486.896C281.933 490.277 289.03 494.772 295.095 497.551C300.944 500.231 302.594 502.954 306.857 505.575L308.341 505.387C309.495 507.15 308.688 510.615 308.412 513.029C307.364 514.073 307.965 513.751 306.582 514.094L305.327 514.091L305.058 514.14L304.49 509.055C300.264 506.272 294.493 504.096 290.247 501.512C283.326 497.301 278.035 494.037 270.73 490.514C267.185 488.69 263.279 485.991 260.022 483.717C250.758 479.563 238.968 470.769 229.308 469.776C228.568 473.661 228.37 475.777 229.09 479.65C227.618 482.654 227.781 485.36 227.577 488.744C226.859 483.253 226.867 465.526 226.996 459.792Z"/><path fill="#7C6E4B" transform="scale(2 2)" d="M260.022 483.717C263.289 484.346 272.163 485.978 273.745 489.034L273.233 489.681C271.52 489.727 272.348 489.535 270.73 490.514C267.185 488.69 263.279 485.991 260.022 483.717Z"/><path fill="#7C6E4B" transform="scale(2 2)" d="M374.431 523.195C372.884 526.517 365.988 533.693 366.055 537.444L366.292 537.963C365.382 540.731 363.349 545.158 363.585 548C363.745 549.922 364.561 552.161 364.349 554.056C364.017 557.038 346.485 566.34 343.141 568.349C338.642 571.085 333.472 573.32 329.086 575.69C328.265 576.134 314.951 585.59 314.869 585.705L309.585 588.104C295.428 577.897 286.572 574.802 271.852 567.428C261.752 562.322 251.869 556.795 242.232 550.862C238.945 548.865 232.325 545.167 229.863 542.546C228.428 538.913 228.806 527.434 229.409 523.338C229.454 524.995 229.242 526.611 230.167 527.863C237.285 532.037 244.46 536.112 251.691 540.088C255.353 542.246 269.062 548.666 272.926 550.606C283.177 555.445 298.085 565.672 308.658 568.166C313.554 569.321 327.023 560.879 331.347 558.375C341.989 552.18 353.036 546.034 362.379 537.93C366.912 533.999 369.329 526.844 374.431 523.195Z"/><defs><linearGradient id="gradient_5" gradientUnits="userSpaceOnUse" x1="334.5097" y1="587.16473" x2="344.32397" y2="606.91791"><stop offset="0" stop-color="#D0C8BB"/><stop offset="1" stop-color="#F6F9F9"/></linearGradient></defs><path fill="url(#gradient_5)" transform="scale(2 2)" d="M346.951 574.45C350.414 572.308 359.318 566.558 362.599 565.178C363.799 566.207 363.676 566.868 364.265 568.64L363.033 568.325C364.848 574.18 366.343 577.854 369.413 583.241C370.254 584.718 372.406 588.196 372.961 589.54C370.736 588.097 369.873 585.324 367.666 582.85L366.811 583.649C367.628 585.163 368.461 586.668 369.307 588.165C370.175 589.689 370.131 589.893 370.219 591.579C369.511 592.752 369.464 592.684 368.342 593.517C363.45 596.54 314.974 626.556 313.968 626.691L313.436 626.123C312.921 624.334 312.675 602.307 312.573 598.488L313.238 598.068L313.257 596.014C315.144 593.313 342.011 577.566 346.951 574.45Z"/><path fill="#A77C57" transform="scale(2 2)" d="M346.951 574.45C350.414 572.308 359.318 566.558 362.599 565.178C363.799 566.207 363.676 566.868 364.265 568.64L363.033 568.325C364.848 574.18 366.343 577.854 369.413 583.241C370.254 584.718 372.406 588.196 372.961 589.54C370.736 588.097 369.873 585.324 367.666 582.85L366.811 583.649C365.882 581.816 365.559 581.068 364.312 579.473C363.355 577.405 362.384 575.343 361.398 573.288C350.098 578.036 338.637 587.582 327.444 593.077C323.452 595.037 317.097 599.205 314.945 603.075C314.335 604.24 314.414 606.649 314.431 607.977C313.294 613.937 313.819 619.959 313.436 626.123C312.921 624.334 312.675 602.307 312.573 598.488L313.238 598.068L313.257 596.014C315.144 593.313 342.011 577.566 346.951 574.45Z"/><path fill="#60391C" transform="scale(2 2)" d="M346.951 574.45C350.414 572.308 359.318 566.558 362.599 565.178C363.799 566.207 363.676 566.868 364.265 568.64L363.033 568.325C360.147 568.214 316.817 598.243 313.238 598.068L313.257 596.014C315.144 593.313 342.011 577.566 346.951 574.45Z"/><path fill="#D5CCBF" transform="scale(2 2)" d="M364.312 579.473C365.559 581.068 365.882 581.816 366.811 583.649C367.628 585.163 368.461 586.668 369.307 588.165C370.175 589.689 370.131 589.893 370.219 591.579C369.511 592.752 369.464 592.684 368.342 593.517C363.45 596.54 314.974 626.556 313.968 626.691L313.436 626.123C313.819 619.959 313.294 613.937 314.431 607.977C315.064 612.667 314.557 617.953 318.554 620.7C323.066 620.264 329.801 615.489 333.503 612.767C335.737 612.074 363.852 593.997 365.093 592.564C365.573 590.897 365.182 590.389 364.583 588.866L365.014 588.83L365.499 590.307C367.028 591.372 366.149 590.997 368.418 590.94C371.029 589.064 363.615 583.682 364.312 579.473Z"/><path fill="#DDDAD2" transform="scale(2 2)" d="M318.554 620.7C320.497 617.002 329.672 612.741 333.503 612.767C329.801 615.489 323.066 620.264 318.554 620.7Z"/><defs><linearGradient id="gradient_6" gradientUnits="userSpaceOnUse" x1="253.72591" y1="511.45157" x2="253.78183" y2="539.99945"><stop offset="0" stop-color="#404A39"/><stop offset="1" stop-color="#596C53"/></linearGradient></defs><path fill="url(#gradient_6)" transform="scale(2 2)" d="M229.409 523.338C229.732 518.961 227.75 514.4 229.568 511.557C232.6 511.417 235.076 513.991 237.603 515.96C240.013 515.954 241.882 516.125 244.257 516.341C255.09 523.297 266.127 527.016 277.888 532.983L279.854 534.178L279.323 535.358C274.406 533.03 264.894 529.595 259.508 528.131L259.257 528.365C261.891 530.933 266.32 529.881 268.141 531.639C264.925 533.388 254.366 540.194 251.691 540.088C244.46 536.112 237.285 532.037 230.167 527.863C229.242 526.611 229.454 524.995 229.409 523.338Z"/><path fill="#A77C57" transform="scale(2 2)" d="M226.729 506.448C231.288 507.589 235.235 510.248 239.249 512.667C235.602 511.046 232.219 509.378 228.646 507.599L227.948 508.006C226.055 512.972 226.6 533.481 228.146 537.084C230.211 534.565 226.61 513.584 228.128 510.053C232.946 510.116 240.601 515.711 243.85 515.646L244.257 516.341C241.882 516.125 240.013 515.954 237.603 515.96C235.076 513.991 232.6 511.417 229.568 511.557C227.75 514.4 229.732 518.961 229.409 523.338C228.806 527.434 228.428 538.913 229.863 542.546C232.325 545.167 238.945 548.865 242.232 550.862C251.869 556.795 261.752 562.322 271.852 567.428C286.572 574.802 295.428 577.897 309.585 588.104L314.869 585.705C313.324 587.375 309.97 589.878 307.677 588.52C290.809 578.529 273.718 569.211 256.327 560.167C246.649 555.133 237.321 549.384 227.497 544.569C226.903 539.402 227.43 533.595 226.696 528.634C225.495 520.532 226.323 514.545 226.729 506.448Z"/><path fill="#7C4B2D" transform="scale(2 2)" d="M277.479 621.479C286.082 620.353 290.049 624.6 295.154 630.207L294.007 629.991L293.926 630.572C290.809 629.535 280.561 623.351 277.479 621.479Z"/><path fill="#C49064" transform="scale(2 2)" d="M265.017 518.265C268.909 520.016 272.661 522.061 276.241 524.383L277.573 524.645C278.893 525.269 281.106 525.98 281.55 527.029L279.623 526.632C279.456 529.327 281.275 529.539 280.358 531.282C278.878 531.622 278.105 531.183 276.657 530.693L278.732 530.167C277.178 524.184 267.576 522.183 265.017 518.265Z"/><path fill="#A77C57" transform="scale(2 2)" d="M236.543 457.326C237.583 457.873 239.82 459.136 240.817 459.423C242.547 460.437 245.509 462.051 247.041 463.165C244.615 462.905 241.231 462.286 239.103 461.128C236.864 459.909 237.167 459.534 236.543 457.326Z"/><defs><linearGradient id="gradient_7" gradientUnits="userSpaceOnUse" x1="272.20593" y1="586.35876" x2="263.65451" y2="601.60699"><stop offset="0" stop-color="#D1CDC3"/><stop offset="1" stop-color="#F8F9F5"/></linearGradient></defs><path fill="url(#gradient_7)" transform="scale(2 2)" d="M232.68 566.227C233.123 566.289 233.568 566.344 234.006 566.435C236.606 566.973 239.331 567.862 241.723 569.013C245.346 570.755 248.659 573.129 252.188 575.059C258.796 578.674 300.215 600.174 302.19 604.33C303.237 606.532 304.071 620.706 303.136 622.75C302.86 623.355 302.335 623.357 301.76 623.57C288.469 617.057 273.255 607.372 259.775 600.353C254.602 597.66 234.814 586.896 231.359 583.978C229.361 579.898 231.807 571.031 232.68 566.227Z"/><path fill="#8B6A49" transform="scale(2 2)" d="M229.716 555.82C232.113 557.111 240.953 561.457 241.726 563.297L240.848 563.342C238.569 562.097 232.867 558.945 230.514 559.079C229.902 560.051 230.174 559.802 229.314 560.503C229.006 559.519 229.538 557.023 229.716 555.82Z"/><path fill="#A77C57" transform="scale(2 2)" d="M254.553 570.006C257.041 570.889 261.313 572.726 262.505 574.989C259.84 574.639 255.709 572.535 254.553 570.006Z"/><path fill="#A77C57" transform="scale(2 2)" d="M275.291 581.964C278.548 582.715 279.758 582.973 281.832 585.52C279.335 584.81 277.07 583.87 275.291 581.964Z"/><path fill="#A77C57" transform="scale(2 2)" d="M309.451 402.311C316.09 400.057 316.411 396.284 323.968 400.185C325.041 404.266 326.176 408.331 327.375 412.378C340.762 416.209 353.458 420.756 360.857 433.339C363.963 438.621 361.653 441.651 369.003 443.182C369.97 443.391 370.938 443.596 371.907 443.795C371.517 444.5 370.962 445.587 370.534 446.224L370.501 447.481C372.343 449.234 375.014 448.374 378.381 449.592L380.053 450.208L379.826 450.931C377.154 452.293 374.238 452.817 371.3 453.531C366.019 454.531 340.416 459.925 336.722 459.069C336.163 458.534 335.7 458.13 335.203 457.536L334.18 458.146C333.216 457.574 332.696 457.182 331.57 457.063L330.482 457.901L330.124 457.965L329.803 458.48L328.618 458.924C328.189 460.321 327.823 461.642 327.242 462.987L327.892 463.473C327.487 470.571 321.525 489.18 320.065 497.49L320.797 497.975L320.271 500.089C319.754 500.323 318.894 500.789 318.4 500.84L318.09 501.488C316.972 500.12 312.055 479.122 311.035 475.283C311.07 478 311.277 481.268 310.744 483.871L309.635 484.952L309.318 485.328C305.077 484.718 297.455 482.522 293.6 480.598C290.792 479.196 290.804 478.933 289.993 476.444L288.521 476.484C287.007 475.574 284.557 473.667 283.003 472.562C279.193 471.937 274.513 462.87 272.269 460.008C271.138 458.566 269.85 458.857 268.054 458.695C267.032 456.496 267.606 456.849 265.857 455.996C264.903 454.966 258.304 451.956 256.521 451.063C260.341 446.936 264.346 449.49 267.342 446.714L266.379 445.644C261.043 444.476 256.662 448.183 252.052 450.883C249.287 452.503 242.407 457.01 240.817 459.423C239.82 459.136 237.583 457.873 236.543 457.326L234.836 456.233C233.581 455.875 234.054 456.071 233.004 455.13L233.183 454.244C235.274 452.329 240.277 449.781 243.03 448.184C244.144 447.782 251.792 443.154 253.039 442.411C253.068 439.374 252.953 437.103 253.626 434.123C259.164 430.458 267.966 425.648 273.839 422.32C285.613 415.646 297.592 408.807 309.451 402.311Z"/><defs><linearGradient id="gradient_8" gradientUnits="userSpaceOnUse" x1="281.13037" y1="476.61343" x2="314.43954" y2="447.10931"><stop offset="0" stop-color="#AF825D"/><stop offset="1" stop-color="#D19B65"/></linearGradient></defs><path fill="url(#gradient_8)" transform="scale(2 2)" d="M286.443 449.092C296.691 448.609 305.084 443.464 314.542 448.382L317.427 449.409C320.987 453.387 318.638 477.12 318.813 483.027C318.907 486.198 317.523 490.591 316.86 493.749C317.449 496.191 317.947 498.352 318.4 500.84L318.09 501.488C316.972 500.12 312.055 479.122 311.035 475.283C311.07 478 311.277 481.268 310.744 483.871L309.635 484.952L309.318 485.328C305.077 484.718 297.455 482.522 293.6 480.598C290.792 479.196 290.804 478.933 289.993 476.444L288.521 476.484C287.007 475.574 284.557 473.667 283.003 472.562C279.193 471.937 274.513 462.87 272.269 460.008C271.138 458.566 269.85 458.857 268.054 458.695C267.032 456.496 267.606 456.849 265.857 455.996C264.903 454.966 258.304 451.956 256.521 451.063C260.341 446.936 264.346 449.49 267.342 446.714C272.515 446.691 271.989 448.372 275.944 449.033C278.31 449.429 283.621 448.434 286.443 449.092Z"/><path fill="#DDDAD2" transform="scale(2 2)" d="M310.381 472.718L311.035 475.283C311.07 478 311.277 481.268 310.744 483.871L309.635 484.952L309.318 485.328C305.077 484.718 297.455 482.522 293.6 480.598C290.792 479.196 290.804 478.933 289.993 476.444C295.2 474.861 300.913 475.344 306.763 473.209C307.969 472.795 309.104 472.805 310.381 472.718Z"/><path fill="#C89D72" transform="scale(2 2)" d="M310.381 472.718L311.035 475.283C311.07 478 311.277 481.268 310.744 483.871L309.635 484.952C308.471 480.922 307.663 477.314 306.763 473.209C307.969 472.795 309.104 472.805 310.381 472.718Z"/><path fill="#DDDAD2" transform="scale(2 2)" d="M278.009 465.833C276.687 463.582 276.208 461.857 275.368 459.408L281.968 463.466L283.808 465.922C285.718 466.561 290.801 467.757 291.932 468.443C291.438 470.003 290.951 471.344 290.637 472.951C290.18 474.888 290.237 475.22 288.521 476.484C287.007 475.574 284.557 473.667 283.003 472.562C282.285 471.091 279.197 467.355 278.009 465.833Z"/><path fill="#C49064" transform="scale(2 2)" d="M308.404 465.151C309.094 467.643 309.855 470.194 310.381 472.718C309.104 472.805 307.969 472.795 306.763 473.209C300.913 475.344 295.2 474.861 289.993 476.444L288.521 476.484C290.237 475.22 290.18 474.888 290.637 472.951L291.272 473.261C293.676 473.397 305.595 466.66 308.404 465.151Z"/><path fill="#E1B17D" transform="scale(2 2)" d="M286.443 449.092C296.691 448.609 305.084 443.464 314.542 448.382C311.963 451.39 289.218 451.363 286.443 449.092Z"/><path fill="#60391C" transform="scale(2 2)" d="M290.637 472.951C293.242 470.535 305.95 462.338 309.174 463.081L309.426 464.397L308.404 465.151C305.595 466.66 293.676 473.397 291.272 473.261L290.637 472.951Z"/><path fill="#60391C" transform="scale(2 2)" d="M308.404 465.151L309.426 464.397C311.905 472.451 315.069 485.388 316.86 493.749C317.449 496.191 317.947 498.352 318.4 500.84L318.09 501.488C316.972 500.12 312.055 479.122 311.035 475.283L310.381 472.718C309.855 470.194 309.094 467.643 308.404 465.151Z"/><path fill="#D5CCBF" transform="scale(2 2)" d="M281.968 463.466C285.006 464.074 290.348 464.568 291.985 467.019L291.932 468.443C290.801 467.757 285.718 466.561 283.808 465.922L281.968 463.466Z"/><path fill="#60391C" transform="scale(2 2)" d="M268.207 452.217C269.528 452.178 273.909 452.079 274.892 452.293C278.982 453.183 299.655 455.95 301.725 457.314L301.64 458.435C297.814 460.129 275.007 454.683 269.624 453.945C268.643 453.811 268.466 452.954 268.207 452.217Z"/><path fill="#D5CCBF" transform="scale(2 2)" d="M315.955 459.54L316.28 459.866C317.387 463.179 317.371 472.347 316.779 475.701L316.131 475.368C315.058 471.717 313.033 466.16 313.354 462.295C313.478 460.805 314.686 460.391 315.955 459.54Z"/><path fill="#60391C" transform="scale(2 2)" d="M305.976 457.874L307.535 458.157L307.809 458.891C306.357 460.593 303.429 461.926 301.364 463.058L300.353 463.179C301.088 461.688 304.523 459.095 305.976 457.874Z"/><path fill="#C49064" transform="scale(2 2)" d="M253.626 434.123C259.164 430.458 267.966 425.648 273.839 422.32C285.613 415.646 297.592 408.807 309.451 402.311C310.594 403.23 310.803 403.295 311.625 404.476C311.212 406.236 309.861 411.372 309.869 412.741C306.361 414.541 302.82 415.247 299.234 416.702C290.504 420.245 282.415 424.634 277.987 433.384C276.795 435.667 274.403 440.539 273.056 442.608C270.699 443.01 268.525 442.99 266.527 443.36L266.379 445.644C261.043 444.476 256.662 448.183 252.052 450.883C249.287 452.503 242.407 457.01 240.817 459.423C239.82 459.136 237.583 457.873 236.543 457.326L234.836 456.233C233.581 455.875 234.054 456.071 233.004 455.13L233.183 454.244C235.274 452.329 240.277 449.781 243.03 448.184C244.144 447.782 251.792 443.154 253.039 442.411C253.068 439.374 252.953 437.103 253.626 434.123Z"/><path fill="#E1B17D" transform="scale(2 2)" d="M253.039 442.411C256.426 440.684 268.474 432.921 270.784 433.008L270.71 434.428C269.953 435.815 269.654 436.63 268.413 437.628C267.522 437.547 267.6 437.389 266.998 437.692C267.417 439.488 266.859 441.497 266.527 443.36L266.379 445.644C261.043 444.476 256.662 448.183 252.052 450.883C249.287 452.503 242.407 457.01 240.817 459.423C239.82 459.136 237.583 457.873 236.543 457.326L234.836 456.233C233.581 455.875 234.054 456.071 233.004 455.13L233.183 454.244C235.274 452.329 240.277 449.781 243.03 448.184C244.144 447.782 251.792 443.154 253.039 442.411Z"/><path fill="#60391C" transform="scale(2 2)" d="M253.039 442.411C256.426 440.684 268.474 432.921 270.784 433.008L270.71 434.428C269.953 435.815 269.654 436.63 268.413 437.628C267.522 437.547 267.6 437.389 266.998 437.692C258.196 441.805 249.668 447.926 241.096 452.581C239.104 453.663 236.683 454.985 234.836 456.233C233.581 455.875 234.054 456.071 233.004 455.13L233.183 454.244C235.274 452.329 240.277 449.781 243.03 448.184C244.144 447.782 251.792 443.154 253.039 442.411Z"/><path fill="#A77C57" transform="scale(2 2)" d="M270.71 434.428C270.475 437.15 269.566 437.704 269.407 440.602C270.144 442.051 269.603 441.582 270.946 442.197C277.734 439.17 265.648 437.05 277.304 433.582L277.987 433.384C276.795 435.667 274.403 440.539 273.056 442.608C270.699 443.01 268.525 442.99 266.527 443.36C266.859 441.497 267.417 439.488 266.998 437.692C267.6 437.389 267.522 437.547 268.413 437.628C269.654 436.63 269.953 435.815 270.71 434.428Z"/><path fill="#E1B17D" transform="scale(2 2)" d="M328.95 440.475L330.748 440.699C333.662 441.502 334.635 441.57 337.586 441.811C344.856 443.41 352.5 445.139 359.867 446.284C362.708 446.726 367.65 445.824 370.534 446.224L370.501 447.481C372.343 449.234 375.014 448.374 378.381 449.592L380.053 450.208L379.826 450.931C377.154 452.293 374.238 452.817 371.3 453.531C366.019 454.531 340.416 459.925 336.722 459.069C336.163 458.534 335.7 458.13 335.203 457.536L334.18 458.146C333.216 457.574 332.696 457.182 331.57 457.063L330.482 457.901L330.124 457.965C328.817 456.903 326.593 457.084 324.363 455.071L324.353 454.213L325.498 453.501C324.142 453.067 320.566 450.521 320.069 449.111L318.456 449.268L318.384 448.835C320.401 446.883 324.979 443.355 327.418 441.223L328.95 440.475Z"/><path fill="#60391C" transform="scale(2 2)" d="M378.381 449.592L380.053 450.208L379.826 450.931C377.154 452.293 374.238 452.817 371.3 453.531C366.019 454.531 340.416 459.925 336.722 459.069C336.163 458.534 335.7 458.13 335.203 457.536C337.812 455.956 372.952 450.364 378.381 449.592Z"/><path fill="#60391C" transform="scale(2 2)" d="M320.069 449.111C332.526 449.191 344.983 449.337 357.438 449.549L357.064 450.975C352.082 451.504 328.168 452.533 325.498 453.501C324.142 453.067 320.566 450.521 320.069 449.111Z"/><path fill="#7C4B2D" transform="scale(2 2)" d="M357.438 449.549C360.672 449.431 362.353 449.475 365.578 449.755C362.963 450.149 359.631 450.739 357.064 450.975L357.438 449.549Z"/><path fill="#E1B17D" transform="scale(2 2)" d="M308.125 439.009C312.344 430.54 316.472 405.347 318.932 403.463L319.652 404.081C320.656 407.197 318.626 414.06 318.496 417.893C318.395 420.859 318.37 423.417 318.411 426.41C318.577 428.869 318.27 431.345 319.547 432.959L320.094 431.163L320.867 430.843C324.011 433.542 323.383 438.503 324.536 441.459L327.418 441.223C324.979 443.355 320.401 446.883 318.384 448.835L318.456 449.268L320.069 449.111C320.566 450.521 324.142 453.067 325.498 453.501L324.353 454.213L324.363 455.071C326.593 457.084 328.817 456.903 330.124 457.965L329.803 458.48L328.618 458.924C328.189 460.321 327.823 461.642 327.242 462.987L327.892 463.473C327.487 470.571 321.525 489.18 320.065 497.49L320.797 497.975L320.271 500.089C319.754 500.323 318.894 500.789 318.4 500.84C317.947 498.352 317.449 496.191 316.86 493.749C317.523 490.591 318.907 486.198 318.813 483.027C318.638 477.12 320.987 453.387 317.427 449.409C315.573 445.282 311.258 442.832 308.125 439.009Z"/><path fill="#D5CCBF" transform="scale(2 2)" d="M319.547 432.959L320.094 431.163L320.867 430.843C324.011 433.542 323.383 438.503 324.536 441.459C323.752 443.676 321.444 445.167 319.574 446.708C319.466 442.188 319.854 437.446 319.547 432.959Z"/><path fill="#C49064" transform="scale(2 2)" d="M318.411 426.41C318.577 428.869 318.27 431.345 319.547 432.959C319.854 437.446 319.466 442.188 319.574 446.708C321.444 445.167 323.752 443.676 324.536 441.459L327.418 441.223C324.979 443.355 320.401 446.883 318.384 448.835C317.777 444.546 317.969 430.887 318.411 426.41Z"/><path fill="#D5CCBF" transform="scale(2 2)" d="M330.768 434.537C328.739 431.683 324.902 424.349 327.216 421.127C328.286 420.878 330.514 421.133 331.432 421.524C334.152 422.684 345.784 424.989 346.881 426.799L343.32 430.55C341.072 431.32 339.574 431.903 337.859 433.657L335.533 434.719C332.692 434.758 333.119 435.592 330.768 434.537Z"/><path fill="#C49064" transform="scale(2 2)" d="M335.365 428.812C339.387 427.895 342.796 427.376 346.881 426.799L343.32 430.55C341.072 431.32 339.574 431.903 337.859 433.657L335.533 434.719C332.692 434.758 333.119 435.592 330.768 434.537C333.225 432.123 333.55 431.731 335.365 428.812Z"/><path fill="#DDDAD2" transform="scale(2 2)" d="M347.88 428.928C354.092 430.935 358.895 440.017 360.545 445.945C357.329 445.118 342.844 442.321 341.309 440.806C341.791 438.799 342.004 438.236 342.818 436.324C344.474 433.838 346.162 431.372 347.88 428.928Z"/><path fill="#60391C" transform="scale(2 2)" d="M309.869 412.741C310.274 413.955 310.511 414.588 310.78 415.855C296.956 419.879 286.194 422.17 278.051 436.165C277.26 437.525 275.364 441.388 275.095 442.74L273.056 442.608C274.403 440.539 276.795 435.667 277.987 433.384C282.415 424.634 290.504 420.245 299.234 416.702C302.82 415.247 306.361 414.541 309.869 412.741Z"/><path fill="#A77C57" transform="scale(2 2)" d="M346.881 426.799C347.756 428.054 347.617 427.539 347.88 428.928C346.162 431.372 344.474 433.838 342.818 436.324C339.601 437.78 339.728 439.731 337.468 441.564L337.586 441.811C334.635 441.57 333.662 441.502 330.748 440.699L328.95 440.475C329.516 438.079 333.353 436.124 335.533 434.719L337.859 433.657C339.574 431.903 341.072 431.32 343.32 430.55L346.881 426.799Z"/><path fill="#7C4B2D" transform="scale(2 2)" d="M346.881 426.799C347.756 428.054 347.617 427.539 347.88 428.928C346.162 431.372 344.474 433.838 342.818 436.324C339.601 437.78 339.728 439.731 337.468 441.564C336.71 438.961 341.64 432.928 343.32 430.55L346.881 426.799Z"/><path fill="#60391C" transform="scale(2 2)" d="M337.859 433.657C337.387 436.041 333.171 440.331 330.748 440.699L328.95 440.475C329.516 438.079 333.353 436.124 335.533 434.719L337.859 433.657Z"/><path fill="#382816" transform="scale(2 2)" d="M273.056 442.608L275.095 442.74C274.654 443.394 274.22 443.938 273.739 444.562C270.976 445.177 268.371 445.771 266.527 443.36C268.525 442.99 270.699 443.01 273.056 442.608Z"/><path fill="#7C4B2D" transform="scale(2 2)" d="M311.625 404.476L312.515 404.049C312.938 405.539 312.446 407.09 312.161 408.728L311.657 411.103C310.95 413.327 310.817 413.571 310.78 415.855C310.511 414.588 310.274 413.955 309.869 412.741C309.861 411.372 311.212 406.236 311.625 404.476Z"/><path fill="#D5CCBF" transform="scale(2 2)" d="M312.161 408.728L313.957 407.796L314.825 408.225C315.297 410.19 314.808 411.572 313.431 413.019L312.575 412.997C311.836 411.917 311.999 412.338 311.657 411.103L312.161 408.728Z"/><path fill="#DDDAD2" transform="scale(2 2)" d="M275.945 445.751C278.877 437.762 282.268 433.403 289.617 428.978L291.727 432.901L296.221 442.095C289.265 443.977 283.126 445.209 275.945 445.751Z"/><path fill="#D5CCBF" transform="scale(2 2)" d="M307.658 422.477L307.921 422.586C309.023 424.593 307.673 429.814 307.184 432.252C304.954 431.37 300.732 430.237 298.281 429.511L292.92 427.75C298.887 426.375 301.995 424.983 307.658 422.477Z"/><path fill="#60391C" transform="scale(2 2)" d="M289.617 428.978L291.244 428.29C293.656 429.741 299.504 437.962 301.194 440.383L300.911 441.106C297.045 441.288 295.306 434.298 291.727 432.901L289.617 428.978Z"/><path fill="#60391C" transform="scale(2 2)" d="M299.828 434.908C302.851 435.769 306.657 438.071 308.703 440.504C304.27 440.117 302.835 438.034 299.828 434.908Z"/><defs><linearGradient id="gradient_9" gradientUnits="userSpaceOnUse" x1="375.37357" y1="575.38007" x2="457.98962" y2="593.75787"><stop offset="0" stop-color="#415A47"/><stop offset="1" stop-color="#7A7E5E"/></linearGradient></defs><path fill="url(#gradient_9)" transform="scale(2 2)" d="M452.403 536.377L452.986 536.181C456.755 534.883 462.26 530.235 465.661 531.895C472.861 535.411 464.438 567.354 464.427 567.331C462.439 574.312 451.571 590.678 444.737 593.797C435.756 597.896 430.526 598.954 421.562 604.318C410.807 612.394 403.3 623.433 401.187 636.87L399.805 636.5C386.469 637.505 371.662 637.038 358.188 636.906C345.382 636.973 332.647 636.67 319.82 636.878C318.052 636.191 315.948 636.301 314.015 636.245C315.76 635.757 334.407 623.108 337.334 621.16C347.901 614.256 358.626 607.598 369.5 601.191C373.347 598.957 378.221 596.857 381.844 594.627L382.528 594.2C398.034 588.24 414.75 585.511 428.893 578.581C435.625 572.63 436.53 573.063 442.797 564.872C444.008 561.429 444.398 558.41 444.997 554.82L446.207 551.482C446.737 546.582 444.618 542.511 445.699 538.595C447.702 536.36 448.815 536.59 451.984 536.32L452.403 536.377Z"/><path fill="#7C6E4B" transform="scale(2 2)" d="M428.893 578.581L430.205 579.592C430.033 581.932 425.951 583.25 423.887 584.237L423.626 585.616C426.096 584.371 428.965 582.621 431.61 582.342L432.58 582.866C432.919 584.183 432.581 584.598 432.102 585.906C425.359 590.864 418.69 593.066 410.973 596.104C407.79 597.357 397.888 600.534 396.638 603.731C385.924 610.131 377.495 615.761 368.828 624.939C364.458 629.567 364.148 631.642 360.461 636.457C359.588 636.629 358.831 636.779 358.188 636.906C345.382 636.973 332.647 636.67 319.82 636.878C318.052 636.191 315.948 636.301 314.015 636.245C315.76 635.757 334.407 623.108 337.334 621.16C347.901 614.256 358.626 607.598 369.5 601.191C373.347 598.957 378.221 596.857 381.844 594.627L382.528 594.2C398.034 588.24 414.75 585.511 428.893 578.581Z"/><path fill="#A77C57" transform="scale(2 2)" d="M423.887 584.237L423.626 585.616C420.847 587.002 416.418 588.777 413.297 588.714C416.051 586.996 420.711 585.43 423.887 584.237Z"/><path fill="#8E8C64" transform="scale(2 2)" d="M446.207 551.482C446.737 546.582 444.618 542.511 445.699 538.595C447.702 536.36 448.815 536.59 451.984 536.32L452.403 536.377C461.318 551.673 451.379 573.506 437.969 583.128C435.749 582.232 436.824 582.269 434.638 582.835C433.195 584.217 433.132 584.23 432.102 585.906C432.581 584.598 432.919 584.183 432.58 582.866L431.61 582.342C428.965 582.621 426.096 584.371 423.626 585.616L423.887 584.237C425.951 583.25 430.033 581.932 430.205 579.592L428.893 578.581C435.625 572.63 436.53 573.063 442.797 564.872C444.008 561.429 444.398 558.41 444.997 554.82L446.207 551.482Z"/><path fill="#676E52" transform="scale(2 2)" d="M444.997 554.82L446.207 551.482C446.064 554.306 445.946 564.137 442.797 564.872C444.008 561.429 444.398 558.41 444.997 554.82Z"/><path fill="#5D5639" transform="scale(2 2)" d="M399.805 636.5C400.25 633.497 401.339 628.131 402.365 625.369C404.564 619.45 415.469 606.431 420.828 603.915L421.562 604.318C410.807 612.394 403.3 623.433 401.187 636.87L399.805 636.5Z"/><path fill="#9F9C70" transform="scale(2 2)" d="M432.102 585.906C433.132 584.23 433.195 584.217 434.638 582.835C436.824 582.269 435.749 582.232 437.969 583.128C422.831 595.064 413.264 595.434 396.638 603.731C397.888 600.534 407.79 597.357 410.973 596.104C418.69 593.066 425.359 590.864 432.102 585.906Z"/><path fill="#C49064" transform="scale(2 2)" d="M325.158 496.707C331.299 493.716 342.163 486.896 348.224 483.194L382.964 462.236C390.884 457.36 403.329 449.281 411.521 445.11C412.274 445.824 412.06 446.932 412.169 448.318C412.432 456.462 412.276 467.08 411.439 475.131C410.678 467.535 408.039 471.651 403.143 467.671C394.743 470.183 389.621 472.153 381.619 475.938C375.719 479.526 368.053 484.023 363.385 489.081C356.734 494.996 350.928 502.192 343.744 507.001C342.327 507.907 339.368 509.923 337.987 510.579C328.972 515.655 324.924 519.32 314.473 519.919L314.421 518.785C314.051 517.17 314.078 515.834 313.697 514.013L312.924 513.99C312.528 511.913 312.877 501.809 313.004 499.203C313.568 497.096 311.25 486.741 309.318 485.328L309.635 484.952L310.744 483.871C311.277 481.268 311.07 478 311.035 475.283C312.055 479.122 316.972 500.12 318.09 501.488L318.4 500.84C318.894 500.789 319.754 500.323 320.271 500.089L320.797 497.975L320.065 497.49C321.525 489.18 327.487 470.571 327.892 463.473C328.336 463.347 328.78 463.221 329.224 463.095C334.187 465.004 341.98 468.664 346.496 470.814C346.884 471.542 347.201 472.066 347.499 472.835L347.433 474.3C335.98 476.408 331.375 467.749 326.554 481.951L326.548 482.782C326.532 487.421 327.492 488.976 325.313 493.881C325.179 494.184 324.681 496.165 325.158 496.707Z"/><defs><linearGradient id="gradient_10" gradientUnits="userSpaceOnUse" x1="357.66751" y1="480.66058" x2="365.45346" y2="496.06827"><stop offset="0" stop-color="#CEC0B4"/><stop offset="1" stop-color="#E5E5DE"/></linearGradient></defs><path fill="url(#gradient_10)" transform="scale(2 2)" d="M322.912 503.678C327.012 503.674 329.966 503.916 333.871 502.28C337.375 500.813 339.994 495.886 342.618 494.335C346.37 492.117 351.177 489.539 354.873 487.407C365.354 481.36 397.887 458.326 407.1 455.814L407.957 456.396C409.522 459.606 408.915 462.907 408.661 466.491L403.143 467.671C394.743 470.183 389.621 472.153 381.619 475.938C375.719 479.526 368.053 484.023 363.385 489.081C356.734 494.996 350.928 502.192 343.744 507.001C342.327 507.907 339.368 509.923 337.987 510.579C328.972 515.655 324.924 519.32 314.473 519.919L314.421 518.785C314.608 515.058 313.29 510.68 315.894 507.95C317.163 507.525 318.097 507.158 319.324 506.657C320.47 505.097 321.302 504.719 322.912 503.678Z"/><path fill="#60391C" transform="scale(2 2)" d="M325.158 496.707C331.299 493.716 342.163 486.896 348.224 483.194L382.964 462.236C390.884 457.36 403.329 449.281 411.521 445.11C412.274 445.824 412.06 446.932 412.169 448.318C400.483 453.761 329.271 499.321 324.8 499.318L324.425 498.59L325.158 496.707Z"/><path fill="#60391C" transform="scale(2 2)" d="M327.892 463.473C328.336 463.347 328.78 463.221 329.224 463.095C334.187 465.004 341.98 468.664 346.496 470.814C346.884 471.542 347.201 472.066 347.499 472.835C343.275 472.515 334.029 467.444 329.381 465.664C326.044 475.902 323.851 487.465 320.797 497.975L320.065 497.49C321.525 489.18 327.487 470.571 327.892 463.473Z"/><path fill="#F9E8A2" transform="scale(2 2)" d="M337.987 510.579C339.368 509.923 342.327 507.907 343.744 507.001C342.468 511.928 343.215 513.527 345.043 518.501C344.364 519.399 344.718 519.11 344.117 519.514C345.947 523.564 341.134 523.342 338.856 526.34C333.356 529.832 320.157 538.575 314.509 539.979C314.234 533.212 314.371 526.689 314.473 519.919C324.924 519.32 328.972 515.655 337.987 510.579Z"/><path fill="#E1B17D" transform="scale(2 2)" d="M337.987 510.579C339.368 509.923 342.327 507.907 343.744 507.001C342.468 511.928 343.215 513.527 345.043 518.501C344.364 519.399 344.718 519.11 344.117 519.514C344.65 512.914 340.095 515.57 338.127 515.297C337.307 513.682 337.731 512.426 337.987 510.579Z"/><path fill="#A77C57" transform="scale(2 2)" d="M265.857 455.996C267.606 456.849 267.032 456.496 268.054 458.695C269.85 458.857 271.138 458.566 272.269 460.008C274.513 462.87 279.193 471.937 283.003 472.562C284.557 473.667 287.007 475.574 288.521 476.484L289.993 476.444C290.804 478.933 290.792 479.196 293.6 480.598C297.455 482.522 305.077 484.718 309.318 485.328C311.25 486.741 313.568 497.096 313.004 499.203C309.519 497.692 287.369 485.926 285.298 483.905C283.669 482.948 282.746 482.488 281.01 481.738C279.566 480.702 276.794 479.254 275.154 478.33L273.595 474.238L271.883 471.246C269.76 467.828 268.365 464.135 266.828 460.42L265.857 455.996Z"/><path fill="#60391C" transform="scale(2 2)" d="M265.857 455.996C267.606 456.849 267.032 456.496 268.054 458.695C269.837 463.741 273.608 466.939 272.536 470.78L271.883 471.246C269.76 467.828 268.365 464.135 266.828 460.42L265.857 455.996Z"/><path fill="#7C4B2D" transform="scale(2 2)" d="M273.595 474.238C274.884 474.894 277.109 476.497 278.353 475.828C280.238 480.382 284.61 480.691 285.298 483.905C283.669 482.948 282.746 482.488 281.01 481.738C279.566 480.702 276.794 479.254 275.154 478.33L273.595 474.238Z"/><path fill="#60391C" transform="scale(2 2)" d="M272.536 470.78C275.371 471.245 277.03 473.402 278.353 475.828C277.109 476.497 274.884 474.894 273.595 474.238L271.883 471.246L272.536 470.78Z"/><path fill="#DDDAD2" transform="scale(2 2)" d="M367.004 429.183C371.872 431.119 397.302 440.923 400.119 443.008C395.683 445.908 377.163 458.397 373.32 459.74C371.148 458.872 371.441 455.661 371.3 453.531C374.238 452.817 377.154 452.293 379.826 450.931L380.053 450.208L378.381 449.592C375.014 448.374 372.343 449.234 370.501 447.481L370.534 446.224C370.962 445.587 371.517 444.5 371.907 443.795C371.106 439.265 366.711 431.456 367.004 429.183Z"/><path fill="#DDDAD2" transform="scale(2 2)" d="M240.817 459.423C242.407 457.01 249.287 452.503 252.052 450.883C256.662 448.183 261.043 444.476 266.379 445.644L267.342 446.714C264.346 449.49 260.341 446.936 256.521 451.063C256.46 455.614 258.735 458.191 263.264 459.355C263.664 465.716 266.658 470.786 266.802 474.271C263.657 472.266 261.31 470.833 258.012 469.119C254.49 467.14 250.662 464.879 247.041 463.165C245.509 462.051 242.547 460.437 240.817 459.423Z"/><path fill="#60391C" transform="scale(2 2)" d="M403.143 467.671C408.039 471.651 410.678 467.535 411.439 475.131L411.425 477.988C410.308 479.043 410.94 478.864 409.58 478.826C408.932 478.083 408.573 477.662 407.975 476.866C407.044 477.807 407.366 477.397 406.915 478.76C397.729 481.219 395.992 479.321 384.827 484.366C381.907 482.5 381.693 479.115 381.619 475.938C389.621 472.153 394.743 470.183 403.143 467.671Z"/><path fill="#60391C" transform="scale(2 2)" d="M356.392 419.124C361.533 421.124 405.796 437.997 406.851 439.213C405.988 440.618 406.377 440.107 404.868 441.078C402.431 441.387 401.666 442.569 400.119 443.008C397.302 440.923 371.872 431.119 367.004 429.183C365.022 428.866 362.43 425.29 361.021 423.65L356.392 419.124Z"/><path fill="#A77C57" transform="scale(2 2)" d="M361.021 423.65C375.397 428.888 390.207 435.616 404.868 441.078C402.431 441.387 401.666 442.569 400.119 443.008C397.302 440.923 371.872 431.119 367.004 429.183C365.022 428.866 362.43 425.29 361.021 423.65Z"/><defs><linearGradient id="gradient_11" gradientUnits="userSpaceOnUse" x1="361.63824" y1="503.94226" x2="342.78116" y2="511.10849"><stop offset="0" stop-color="#AD774E"/><stop offset="1" stop-color="#DEAD71"/></linearGradient></defs><path fill="url(#gradient_11)" transform="scale(2 2)" d="M363.385 489.081C361.937 493.429 360.798 497.635 358.224 501.451C359.443 502.387 359.574 502.242 361.12 502.653L360.555 503.365C357.656 507.06 352.225 517.393 349.662 518.859C347.927 518.561 347.61 518.179 346.325 518.791L346.185 519.363C345.102 523.619 343.243 525.403 338.856 526.34C341.134 523.342 345.947 523.564 344.117 519.514C344.718 519.11 344.364 519.399 345.043 518.501C343.215 513.527 342.468 511.928 343.744 507.001C350.928 502.192 356.734 494.996 363.385 489.081Z"/><path fill="#8D5534" transform="scale(2 2)" d="M381.619 475.938C381.693 479.115 381.907 482.5 384.827 484.366C374.295 490.188 369.47 493.444 361.12 502.653C359.574 502.242 359.443 502.387 358.224 501.451C360.798 497.635 361.937 493.429 363.385 489.081C368.053 484.023 375.719 479.526 381.619 475.938Z"/><path fill="#60391C" transform="scale(2 2)" d="M414.185 621.776C421.865 610.491 432.484 607.153 443.903 600.748C452.926 595.687 461.55 587.766 467.196 579.061C471.38 572.609 473.004 565.5 475.961 558.768L476.149 558.347C473.515 573.167 462.551 591.054 450.074 599.615C436.704 608.79 426.445 609.49 415.457 622.041L414.185 621.776Z"/><path fill="#8B6A49" transform="scale(2 2)" d="M363.227 511.749C366.505 505.897 376.92 496.887 382.768 493.923C386.554 496.988 394.295 506.346 394.899 510.92C393.956 512.119 393.386 512.223 391.994 512.82L392 511.433C388.9 507.058 385.383 502.64 382.097 498.376C380.734 499.265 370.767 506.264 370.726 506.261L371.066 504.746L370.765 504.349C368.064 506.536 365.033 511.165 363.227 511.749Z"/><path fill="#D5CCBF" transform="scale(2 2)" d="M326.554 481.951C331.375 467.749 335.98 476.408 347.433 474.3L347.833 475.592C343.457 478.136 333.23 484.431 327.91 484.127C327.201 484.086 326.767 482.623 326.554 481.951Z"/><path fill="#DDDAD2" transform="scale(2 2)" d="M346.496 470.814C345.723 469.404 344.629 468.216 345.197 466.807C346.795 462.848 355.209 461.161 359.237 459.975C356.421 468.463 355.814 471.107 347.833 475.592L347.433 474.3L347.499 472.835C347.201 472.066 346.884 471.542 346.496 470.814Z"/><path fill="#5D5639" transform="scale(2 2)" d="M458.844 529.828C461.79 527.572 463.44 526.261 466.074 523.68C469.899 535.166 471.769 557.017 464.427 567.331C464.438 567.354 472.861 535.411 465.661 531.895C462.26 530.235 456.755 534.883 452.986 536.181L452.403 536.377L451.984 536.32C452.587 532.72 455.792 535.718 458.844 529.828Z"/><path fill="#E1B17D" transform="scale(2 2)" d="M256.521 451.063C258.304 451.956 264.903 454.966 265.857 455.996L266.828 460.42C267.203 462.652 267.784 465.418 267.781 467.631C268.903 473.174 270.181 475.117 274.153 478.792C272.393 477.873 267.86 475.724 266.802 474.271C266.658 470.786 263.664 465.716 263.264 459.355C258.735 458.191 256.46 455.614 256.521 451.063Z"/><path fill="#C89D72" transform="scale(2 2)" d="M266.828 460.42C268.365 464.135 269.76 467.828 271.883 471.246L273.595 474.238L275.154 478.33C276.794 479.254 279.566 480.702 281.01 481.738C279.074 481.121 275.717 479.606 273.999 479.294C275.734 481.393 276.641 482.013 278.738 483.683C275.816 481.783 270.229 480.971 267.703 477.174C265.796 474.309 261.628 471.944 258.552 470.338L257.902 470.6C257.614 471.453 257.471 471.445 256.841 472.09L258.012 469.119C261.31 470.833 263.657 472.266 266.802 474.271C267.86 475.724 272.393 477.873 274.153 478.792C270.181 475.117 268.903 473.174 267.781 467.631C267.784 465.418 267.203 462.652 266.828 460.42Z"/><path fill="#7C6E4B" transform="scale(2 2)" d="M458.844 529.828C455.792 535.718 452.587 532.72 451.984 536.32C448.815 536.59 447.702 536.36 445.699 538.595C444.618 542.511 446.737 546.582 446.207 551.482L444.997 554.82C445.046 545.552 444.618 544.167 440.606 535.77C448.029 534.531 452.41 533.661 458.844 529.828Z"/><path fill="#8B6A49" transform="scale(2 2)" d="M392 511.433L391.994 512.82C388.162 515.092 382.87 517.904 381.057 521.961C370.807 525.252 371.756 529.994 366.292 537.963L366.055 537.444C365.988 533.693 372.884 526.517 374.431 523.195C381.921 516.489 383.675 515.906 392 511.433Z"/><path fill="#7C6E4B" transform="scale(2 2)" d="M327.37 540.64L328.04 541.858C327.036 542.596 325.82 543.434 324.889 544.23C324.668 544.871 324.323 545.788 324.149 546.452C323.508 548.477 324.006 547.543 322.296 549.188C318.216 550.412 318.26 547.099 312.209 550.789L311.16 549.826C316.281 546.655 322.02 543.872 327.37 540.64Z"/><path fill="#C49064" transform="scale(2 2)" d="M312.924 513.99L313.697 514.013C314.078 515.834 314.051 517.17 314.421 518.785L314.473 519.919C314.371 526.689 314.234 533.212 314.509 539.979C313.902 540.71 314.309 540.405 313.179 540.728C312.009 538.419 312.898 518.587 312.924 513.99Z"/><path fill="#60391C" transform="scale(2 2)" d="M363.033 568.325L364.265 568.64C366.042 573.117 367.413 576.487 369.729 580.785C370.801 582.775 375.107 588.737 374.751 590.087C373.534 590.163 374.142 590.234 372.961 589.54C372.406 588.196 370.254 584.718 369.413 583.241C366.343 577.854 364.848 574.18 363.033 568.325Z"/><path fill="#A77C57" transform="scale(2 2)" d="M305.327 514.091L306.582 514.094C308.688 517.114 306.694 523.034 306.592 526.893C306.496 530.518 306.329 534.441 306.036 538.049L306.163 536.842L305.808 536.555C305.391 529.299 305.718 521.622 305.327 514.091Z"/><path fill="#60391C" transform="scale(2 2)" d="M330.482 457.901C332.889 458.492 336.303 462.118 338.337 463.972C335.58 462.751 331.278 461.089 329.803 458.48L330.124 457.965L330.482 457.901Z"/><path fill="#8B6A49" transform="scale(2 2)" d="M382.973 525.733C390.986 517.357 405.81 515.753 416.587 518.412C421.668 520.476 421.89 521.04 426.344 524.325C433.342 529.486 436.708 549.958 428.56 555.139C422.682 561.507 412.571 563.193 405.387 557.901L405.193 557.686C402.002 555.725 401.652 554.301 400.228 550.921C399.195 544.253 403.198 539.47 408.715 536.368C406.988 536.368 405.006 536.841 403.289 537.177C403.972 536.16 404.135 535.935 404.622 534.822C403.562 534.63 403.824 534.765 402.897 534.288C404.928 533.028 405.315 532.948 406.165 530.723L403.726 531.615C400.2 535.299 399.384 535.95 395.959 540.165L394.964 539.895C390.114 537.572 376.433 539.067 385.616 529.848L383.421 529.656L386.057 526.229L382.973 525.733Z"/><path fill="#E1B17D" transform="scale(2 2)" d="M406.165 530.723C417.594 526.627 425.882 536.679 423.216 548.061L423.924 548.483C424.118 551.213 422.064 554.055 419.956 555.694C418.919 557.981 419.235 558.102 416.55 558.784C412.44 560.757 410.421 557.429 405.387 557.901L405.193 557.686C402.002 555.725 401.652 554.301 400.228 550.921C399.195 544.253 403.198 539.47 408.715 536.368C406.988 536.368 405.006 536.841 403.289 537.177C403.972 536.16 404.135 535.935 404.622 534.822C403.562 534.63 403.824 534.765 402.897 534.288C404.928 533.028 405.315 532.948 406.165 530.723Z"/><defs><linearGradient id="gradient_12" gradientUnits="userSpaceOnUse" x1="408.86215" y1="537.33563" x2="408.23135" y2="549.37878"><stop offset="0" stop-color="#5F3514"/><stop offset="1" stop-color="#84592E"/></linearGradient></defs><path fill="url(#gradient_12)" transform="scale(2 2)" d="M408.715 536.368C415.555 536.755 418.862 539.067 417.45 546.413L416.407 547.272C415.175 547.053 415.043 547.032 413.887 546.566L412.698 546.941L411.123 546.93C409.39 548.368 409.042 548.592 408.875 551.013L408.45 551.096C409.045 558.097 414.755 558.24 419.956 555.694C418.919 557.981 419.235 558.102 416.55 558.784C412.44 560.757 410.421 557.429 405.387 557.901L405.193 557.686C402.002 555.725 401.652 554.301 400.228 550.921C399.195 544.253 403.198 539.47 408.715 536.368Z"/><path fill="#7C6E4B" transform="scale(2 2)" d="M405.193 557.686C405.18 554.567 400.412 548.611 407.625 546C407.108 547.336 406.675 548.453 406.255 549.835L406.752 550.741L408.45 551.096C409.045 558.097 414.755 558.24 419.956 555.694C418.919 557.981 419.235 558.102 416.55 558.784C412.44 560.757 410.421 557.429 405.387 557.901L405.193 557.686Z"/><path fill="#8B6A49" transform="scale(2 2)" d="M401.293 549.914C404.676 547.622 407.807 538.869 414.422 545.115C413.697 546.301 412.768 546.289 411.123 546.93C409.39 548.368 409.042 548.592 408.875 551.013L408.45 551.096L406.752 550.741L406.255 549.835C406.675 548.453 407.108 547.336 407.625 546C400.412 548.611 405.18 554.567 405.193 557.686C402.002 555.725 401.652 554.301 400.228 550.921L401.293 549.914Z"/><path fill="#A77C57" transform="scale(2 2)" d="M414.422 545.115C413.697 546.301 412.768 546.289 411.123 546.93C409.39 548.368 409.042 548.592 408.875 551.013L408.45 551.096L406.752 550.741L406.255 549.835C406.675 548.453 407.108 547.336 407.625 546C409.622 545.356 412.294 545.275 414.422 545.115Z"/><path fill="#C89D72" transform="scale(2 2)" d="M401.293 549.914C403.733 540.922 412.77 536.28 417.45 546.413L416.407 547.272C415.175 547.053 415.043 547.032 413.887 546.566L412.698 546.941L411.123 546.93C412.768 546.289 413.697 546.301 414.422 545.115C407.807 538.869 404.676 547.622 401.293 549.914Z"/><path fill="#60391C" transform="scale(2 2)" d="M423.216 548.061L423.924 548.483C424.118 551.213 422.064 554.055 419.956 555.694C414.755 558.24 409.045 558.097 408.45 551.096L408.875 551.013C409.984 552.151 410.571 552.95 411.911 553.76C417.153 556.46 420.908 552.491 423.216 548.061Z"/><defs><linearGradient id="gradient_13" gradientUnits="userSpaceOnUse" x1="393.85135" y1="526.17725" x2="395.64865" y2="537.82275"><stop offset="0" stop-color="#C9BDB0"/><stop offset="1" stop-color="#EEE4D4"/></linearGradient></defs><path fill="url(#gradient_13)" transform="scale(2 2)" d="M385.616 529.848C388.743 527.854 392.978 525.83 396.557 524.881C402.708 528.198 403.677 527.847 410.54 528.311C408.295 529.046 405.32 529.888 403.291 530.97L403.726 531.615C400.2 535.299 399.384 535.95 395.959 540.165L394.964 539.895C390.114 537.572 376.433 539.067 385.616 529.848Z"/><path fill="#C49064" transform="scale(2 2)" d="M403.291 530.97L403.726 531.615C400.2 535.299 399.384 535.95 395.959 540.165L394.964 539.895C396.509 536.154 399.867 533.007 403.291 530.97Z"/><path fill="#60391C" transform="scale(2 2)" d="M382.973 525.733C390.986 517.357 405.81 515.753 416.587 518.412C415.624 519.507 414.954 520.652 413.291 520.561C405.3 520.124 392.819 521.061 386.057 526.229L382.973 525.733Z"/><path fill="#A77C57" transform="scale(2 2)" d="M416.55 558.784L418.239 558.95C421.501 557.334 425.127 556.728 428.56 555.139C422.682 561.507 412.571 563.193 405.387 557.901C410.421 557.429 412.44 560.757 416.55 558.784Z"/><path fill="#D5CCBF" transform="scale(2 2)" d="M420.949 530.822C428.995 533.355 429.889 543.891 429.084 550.89L427.515 550.908C423.611 548.309 426.324 545.099 425.47 541.466C424.649 537.974 422.348 534.328 420.949 530.822Z"/><path fill="#8B6A49" transform="scale(2 2)" d="M411.521 567.721L412.188 567.766C425.259 568.523 431.842 562.98 437.926 552.389L438.289 552.524C439.953 578.752 400.054 579.057 384.347 587.142C383.517 587.487 383.436 587.408 382.515 587.518C379.483 586.107 377.069 581.594 375.269 578.748C374.441 577.195 373.631 575.534 372.829 573.957C372.173 571.967 372.142 572.884 372.514 571.108C378.121 564.494 388.856 560.136 397.237 558.358C401.391 564.268 404.816 565.947 411.521 567.721Z"/><defs><linearGradient id="gradient_14" gradientUnits="userSpaceOnUse" x1="394.7229" y1="566.50073" x2="394.77295" y2="584.96948"><stop offset="0" stop-color="#C9C0B2"/><stop offset="1" stop-color="#F6F5ED"/></linearGradient></defs><path fill="url(#gradient_14)" transform="scale(2 2)" d="M377.168 578.744C376.641 570.836 389.745 567.058 395.805 565.767L398.994 568.648C403.634 573.466 407.632 574.687 413.796 576.781C406.694 579.929 391.361 583.679 383.227 586.31L384.347 587.142C383.517 587.487 383.436 587.408 382.515 587.518C379.483 586.107 377.069 581.594 375.269 578.748L377.168 578.744Z"/><path fill="#7C6E4B" transform="scale(2 2)" d="M375.269 578.748L377.168 578.744C378.779 581.357 380.745 584.462 383.227 586.31L384.347 587.142C383.517 587.487 383.436 587.408 382.515 587.518C379.483 586.107 377.069 581.594 375.269 578.748Z"/><path fill="#60391C" transform="scale(2 2)" d="M397.237 558.358C401.391 564.268 404.816 565.947 411.521 567.721L412.234 568.675L411.832 569.227C408.918 569.772 406.068 568.656 403.48 567.417C400.113 565.015 398.734 563.909 395.753 561.055C388.631 563.408 384.361 565.249 378.207 569.71C376.76 570.759 373.951 573.25 372.829 573.957C372.173 571.967 372.142 572.884 372.514 571.108C378.121 564.494 388.856 560.136 397.237 558.358Z"/><path fill="#676E52" transform="scale(2 2)" d="M411.488 487.334C413.256 484.545 423.926 486.725 426.775 488.314C427.809 488.891 427.737 490.503 427.886 491.557C428.449 499.915 425.934 506.218 421.547 513.067C419.786 512.421 417.901 511.609 416.149 510.898C416.088 502.431 415.338 494.962 411.488 487.334Z"/><path fill="#5D5639" transform="scale(2 2)" d="M411.488 487.334C413.256 484.545 423.926 486.725 426.775 488.314C427.809 488.891 427.737 490.503 427.886 491.557L426.99 492.398C421.774 490.715 416.6 489.316 411.488 487.334Z"/><path fill="#676E52" transform="scale(2 2)" d="M452.485 506.256L453.58 503.854C456.32 504.651 463.656 514.284 461.85 517.809C459.11 520.465 456.556 522.858 453.241 524.784C449.274 527.089 440.344 530.231 436.325 527.059C436.236 525.946 436.159 525.528 437.206 524.645C444.79 518.254 448.12 515.424 452.485 506.256Z"/><path fill="#5D5639" transform="scale(2 2)" d="M452.485 506.256L453.58 503.854C456.32 504.651 463.656 514.284 461.85 517.809C458.215 516.274 455.699 509.823 452.485 506.256Z"/><path fill="#676E52" transform="scale(2 2)" d="M434.994 491.029C439.553 492.765 444.567 495.486 447.901 499.076C444.747 507.264 443.745 509.216 437.483 515.42C435.232 517.611 433.18 519.195 429.891 518.43C427.573 515.969 430.02 512.054 431.34 509.445C434.578 503.043 435.072 498.086 434.994 491.029Z"/><path fill="#676E52" transform="scale(2 2)" d="M403.13 486.736L403.958 487.246C407.698 493.631 409.105 502.696 409.064 510.034C406.911 510.1 404.612 510.318 402.451 510.482L400.71 506.831C397.077 499.371 394.304 496.559 388.626 490.712C394.368 488.404 397.014 487.602 403.13 486.736Z"/><path fill="#8B6A49" transform="scale(2 2)" d="M371.26 543.567C375.894 543.339 395.699 542.38 394.26 550.572C392.85 551.312 372.038 540.26 370.288 554.01C370.431 557.319 370.564 559.807 370.988 563.086L369.718 563.394L369.03 562.761C367.273 557.584 369.087 548.611 371.26 543.567Z"/><path fill="#D5CCBF" transform="scale(2 2)" d="M370.288 554.01C376.191 550.005 383.302 550.594 389.815 552.527C378.496 556.276 379.619 557.864 370.988 563.086C370.564 559.807 370.431 557.319 370.288 554.01Z"/><path fill="#7C6E4B" transform="scale(2 2)" d="M383.421 529.656C381.706 532.268 379.147 537.363 375.572 536.971L375.134 536.186C375.668 532.022 379.915 528.489 382.973 525.733L386.057 526.229L383.421 529.656Z"/><path fill="#C49064" transform="scale(2 2)" d="M466.137 570.176L467.007 570.826C467.409 573.503 462.206 581.278 460.602 583.809C459.627 583.613 460.082 583.811 459.249 583.184C460.308 580.146 464.054 574.916 465.825 570.895L466.137 570.176Z"/><defs><linearGradient id="gradient_15" gradientUnits="userSpaceOnUse" x1="506.18021" y1="507.46851" x2="566.74011" y2="459.81546"><stop offset="0" stop-color="#794629"/><stop offset="1" stop-color="#9E6845"/></linearGradient></defs><path fill="url(#gradient_15)" transform="scale(2 2)" d="M511.009 453.217C529.279 453.138 553.139 450.172 568.462 461.707C578.53 469.285 580.394 481.594 578.573 493.309C572.28 524.795 539.55 520.57 513.782 519.959C512.636 519.932 511.872 518.106 511.468 517.105C511.963 496.358 511.073 474.186 511.009 453.217ZM528.175 505.455C543.472 505.705 563.275 507.043 562.631 485.497C562.612 484.877 562.587 484.258 562.558 483.639C557.552 465.179 543.115 467.386 527.69 467.658C528.756 475.974 527.713 495.466 528.175 505.455Z"/><path fill="#60391C" transform="scale(2 2)" d="M511.468 517.105C532.508 516.235 559.111 523.606 573.446 502.545C575.274 499.86 576.388 496.559 578.143 493.94L578.573 493.309C572.28 524.795 539.55 520.57 513.782 519.959C512.636 519.932 511.872 518.106 511.468 517.105Z"/><path fill="#60391C" transform="scale(2 2)" d="M527.69 467.658C527.503 465.745 527.179 465.908 528.04 464.723C540.216 462.451 566.253 466.02 562.558 483.639C557.552 465.179 543.115 467.386 527.69 467.658Z"/><defs><linearGradient id="gradient_16" gradientUnits="userSpaceOnUse" x1="570.69666" y1="603.98181" x2="627.68921" y2="556.00671"><stop offset="0" stop-color="#7B472B"/><stop offset="1" stop-color="#A66D47"/></linearGradient></defs><path fill="url(#gradient_16)" transform="scale(2 2)" d="M573.757 543.873C580.45 543.961 587.291 543.787 594.03 543.772C604.972 543.748 615.81 542.801 624.574 550.879C629.833 555.727 631.495 562.08 631.613 568.937C630.966 581.944 627.175 581.357 620.191 589.239C621.613 590.963 631.951 608.774 631.906 610.823C628.46 612.113 619.615 611.671 615.598 611.472C613.076 607.936 607.691 600.093 605.706 596.217C605.286 595.847 603.557 593.188 603.13 592.555C598.673 592.413 593.707 592.157 589.314 592.641C590.185 595.431 590.058 606.937 589.429 609.779C588.526 610.894 588.098 611.246 586.649 611.459C583.751 611.886 576.8 612.178 574.63 610.151C572.939 608.571 573.958 549.711 573.757 543.873ZM589.521 577.06C597.837 576.98 612.424 579.083 614.992 568.998C614.178 563.478 613.87 562.514 609.518 559.114C605.575 558.235 592.957 557.755 589.239 558.906C589.774 564.757 589.428 571.142 589.521 577.06Z"/><path fill="#7C4B2D" transform="scale(2 2)" d="M589.314 592.641L588.211 592.203L588.067 590.962C590.411 588.208 599.348 589.05 603.12 589.115C604.57 590.986 607.188 593.989 607.328 596.245L607.092 596.656L605.706 596.217C605.286 595.847 603.557 593.188 603.13 592.555C598.673 592.413 593.707 592.157 589.314 592.641Z"/><path fill="#60391C" transform="scale(2 2)" d="M631.613 568.937C630.966 581.944 627.175 581.357 620.191 589.239C618.989 589.267 618.4 588.316 617.732 587.446C617.828 585.992 620.656 584.532 622.241 583.416C628.028 579.345 628.901 574.761 631.613 568.937Z"/><path fill="#7C4B2D" transform="scale(2 2)" d="M589.239 558.906C588.417 557.226 588.426 557.36 588.654 555.507C590.055 554.141 593.467 554.188 595.499 554.321C607.867 555.134 616.219 554.419 614.992 568.998C614.178 563.478 613.87 562.514 609.518 559.114C605.575 558.235 592.957 557.755 589.239 558.906Z"/><path fill="#E1B17D" transform="scale(2 2)" d="M723.716 452.42C734.362 452.693 745.485 452.374 756.28 452.595C779.037 453.061 792.14 478.573 772.985 493.958C765.475 499.99 749.784 500.786 740.243 499.558C740.434 504.147 740.371 509.127 740.401 513.749C740.392 515.567 740.599 517.563 739.755 519.093C737.165 519.78 726.422 519.844 724.451 518.719L723.822 517.733C724.282 512.612 723.902 502.268 723.859 496.869C723.628 482.054 723.58 467.236 723.716 452.42ZM739.973 486.477C749.288 486.319 756.091 487.896 763.849 483.01C768.438 477.894 768.535 472.45 763.294 467.599C757.698 462.42 746.959 464.939 739.71 464.27C739.876 471.594 739.692 479.212 739.973 486.477Z"/><path fill="#60391C" transform="scale(2 2)" d="M723.822 517.733C728.314 516.284 734.168 518.148 739.239 517.043C740.566 515.942 740.133 516.104 740.401 513.749C740.392 515.567 740.599 517.563 739.755 519.093C737.165 519.78 726.422 519.844 724.451 518.719L723.822 517.733Z"/><defs><linearGradient id="gradient_17" gradientUnits="userSpaceOnUse" x1="639.3067" y1="609.52948" x2="696.20575" y2="568.88904"><stop offset="0" stop-color="#925A39"/><stop offset="1" stop-color="#C38759"/></linearGradient></defs><path fill="url(#gradient_17)" transform="scale(2 2)" d="M664.479 543.838C669.483 543.764 674.926 543.574 679.89 543.801C689.706 565.161 699.024 587.563 708.949 608.594C709.335 609.933 709.331 609.274 708.921 610.639C706.359 612.613 696.999 611.623 693.592 611.421C691.965 608.257 691.421 606.892 690.281 603.511C689.152 601.124 688.512 599.004 687.685 596.509C679.398 596.643 670.463 596.405 662.127 596.339C655.377 596.663 656.226 598.905 653.776 604.546C652.936 607.223 652.362 608.809 651.292 611.404C646.938 611.237 639.462 611.927 636.242 610.092C635.682 608.867 635.661 609.445 635.961 608.334C644.108 590.752 651.216 572.576 659.719 555.117C661.475 551.511 663.124 547.603 664.479 543.838ZM662.542 583.046L673.125 583.029C675.923 582.99 678.881 582.994 681.661 582.878C680.607 579.593 674.128 562.435 672.188 560.792C669.601 565.716 664.45 577.629 662.542 583.046Z"/><path fill="#60391C" transform="scale(2 2)" d="M690.293 599.521C691.574 602.294 693.151 605.983 694.728 608.498C699.311 608.52 704.411 608.43 708.949 608.594C709.335 609.933 709.331 609.274 708.921 610.639C706.359 612.613 696.999 611.623 693.592 611.421C691.965 608.257 691.421 606.892 690.281 603.511C690.561 601.907 690.421 601.117 690.293 599.521Z"/><defs><linearGradient id="gradient_18" gradientUnits="userSpaceOnUse" x1="642.84021" y1="611.89435" x2="645.65979" y2="605.60565"><stop offset="0" stop-color="#643721"/><stop offset="1" stop-color="#7F5233"/></linearGradient></defs><path fill="url(#gradient_18)" transform="scale(2 2)" d="M635.961 608.334C640.265 608.496 647.536 608.87 651.61 607.641C652.081 606.785 652.358 605.902 652.637 604.967L653.776 604.546C652.936 607.223 652.362 608.809 651.292 611.404C646.938 611.237 639.462 611.927 636.242 610.092C635.682 608.867 635.661 609.445 635.961 608.334Z"/><path fill="#7C4B2D" transform="scale(2 2)" d="M662.127 596.339C663.738 595.474 672.361 596.051 675.112 595.71C680.051 595.1 682.952 594.297 688.005 594.32C688.657 595.659 689.996 598.166 690.293 599.521C690.421 601.117 690.561 601.907 690.281 603.511C689.152 601.124 688.512 599.004 687.685 596.509C679.398 596.643 670.463 596.405 662.127 596.339Z"/><defs><linearGradient id="gradient_19" gradientUnits="userSpaceOnUse" x1="593.78662" y1="516.97668" x2="642.22302" y2="453.16931"><stop offset="0" stop-color="#99603E"/><stop offset="1" stop-color="#C08B5D"/></linearGradient></defs><path fill="url(#gradient_19)" transform="scale(2 2)" d="M591.192 452.469C608.177 452.548 626.887 452.947 643.808 452.427C643.864 456.627 643.879 460.829 643.852 465.029L607.445 465.009L607.476 478.514C611.778 478.474 636.811 477.682 638.793 479.442C639.844 482.981 639.503 487.51 639.435 491.271C629.498 491.325 617.926 491.645 608.101 491.223L608.053 505.513L645.71 505.46C645.674 508.703 645.434 514.81 645.837 517.804L645.484 519.244C644.069 520.321 634.614 519.851 632.281 519.846L592.08 519.766C591.21 518.938 591.419 518.476 591.16 516.988C591.727 495.412 590.842 474.07 591.192 452.469Z"/><path fill="#60391C" transform="scale(2 2)" d="M591.16 516.988C602.842 517.839 615.069 517.299 626.779 517.421C631.42 517.469 641.859 516.658 645.837 517.804L645.484 519.244C644.069 520.321 634.614 519.851 632.281 519.846L592.08 519.766C591.21 518.938 591.419 518.476 591.16 516.988Z"/><path fill="#C49064" transform="scale(2 2)" d="M688.532 452.528C695.463 452.457 702.606 452.466 709.514 452.222C709.539 456.251 709.616 460.382 709.555 464.402L673.094 464.43C673.476 468.775 673.305 473.703 673.26 478.108C683.799 478.187 694.897 478.109 705.394 478.377C705.445 482.713 705.473 487.049 705.475 491.386C696.631 491.292 681.698 491.776 673.433 491.201L673.485 505.241C686.332 505.309 699.178 505.311 712.025 505.247C712.013 508.388 711.818 514.43 712.272 517.307C712.092 518.483 712.239 518.102 711.486 519.108C708.588 519.531 697.469 519.24 694.025 519.25L657.474 519.498C657.239 497.284 657.461 474.635 657.478 452.391C666.464 452.013 679.409 452.338 688.532 452.528Z"/><path fill="#60391C" transform="scale(2 2)" d="M657.478 452.391C666.464 452.013 679.409 452.338 688.532 452.528C688.283 452.641 688.037 452.761 687.785 452.867C682.097 455.26 662.538 452.526 660.809 456.6C658.114 462.951 659.818 506.675 660.703 515.068C671.137 518.14 688.538 516.618 699.859 516.957C703.489 517.066 708.783 516.607 712.272 517.307C712.092 518.483 712.239 518.102 711.486 519.108C708.588 519.531 697.469 519.24 694.025 519.25L657.474 519.498C657.239 497.284 657.461 474.635 657.478 452.391Z"/><path fill="#7C4B2D" transform="scale(2 2)" d="M507.138 543.745C513.887 543.342 522.007 543.563 528.902 543.578L565.818 543.611C565.904 547.864 565.707 551.891 565.911 556.213L565.456 558.13C562.77 559.606 548.468 558.904 544.113 558.871C544.77 566.876 544.143 578.788 544.448 587.096C544.594 591.063 544.723 607.341 544.124 610.279C541.811 612.228 531.444 611.932 528.758 610.762C527.696 608.685 527.798 563.852 528.239 558.706C523.895 558.89 511.698 559.139 507.853 558.682L507.097 557.603C507.702 553.676 507.337 547.823 507.138 543.745Z"/><path fill="#60391C" transform="scale(2 2)" d="M544.113 558.871C544.194 557.604 544.26 557.519 544.654 556.295C547.192 555.468 563.032 555.464 565.911 556.213L565.456 558.13C562.77 559.606 548.468 558.904 544.113 558.871Z"/><path fill="#60391C" transform="scale(2 2)" d="M507.097 557.603C511.434 555.379 523.189 554.571 527.964 555.861C528.691 556.905 528.684 557.292 528.239 558.706C523.895 558.89 511.698 559.139 507.853 558.682L507.097 557.603Z"/><path fill="#C49064" transform="scale(2 2)" d="M748.423 544.318C752.951 543.817 758.465 543.929 763.05 544.153C762.923 561.764 762.914 579.376 763.022 596.988C774.322 596.542 785.631 597.037 796.959 596.641C796.96 599.817 796.796 605.589 797.105 608.559C797.031 609.995 797.042 609.988 796.593 611.349C789.598 611.757 780.979 611.581 773.858 611.607C765.833 611.637 756.812 611.851 748.869 611.524C747.912 610.477 748.245 610.403 748.165 608.563C747.517 589.304 748.032 567.807 747.972 548.343C747.944 546.815 747.749 545.661 748.423 544.318Z"/><path fill="#60391C" transform="scale(2 2)" d="M748.165 608.563C764.531 608.879 780.862 608.278 797.105 608.559C797.031 609.995 797.042 609.988 796.593 611.349C789.598 611.757 780.979 611.581 773.858 611.607C765.833 611.637 756.812 611.851 748.869 611.524C747.912 610.477 748.245 610.403 748.165 608.563Z"/><path fill="#C89D72" transform="scale(2 2)" d="M747.972 548.343C747.944 546.815 747.749 545.661 748.423 544.318C751.427 544.566 753.62 544.416 756.599 544.268C754.911 545.294 749.939 548.986 749.237 549.237C748.185 548.815 748.587 549.14 747.972 548.343Z"/><path fill="#C49064" transform="scale(2 2)" d="M716.99 543.922C720.843 544.005 728.384 543.258 731.664 544.397C733.421 549.514 732.538 602.237 732.594 611.375C727.49 611.338 722.385 611.391 717.282 611.536C717.066 588.999 716.969 566.46 716.99 543.922Z"/><path fill="#382816" transform="scale(2 2)" d="M414.185 621.776L415.457 622.041C410.762 629.76 411.068 631.718 408.148 639.334C378.222 640.479 347.842 639.208 317.876 639.713C315.074 639.761 310.514 639.989 308.03 638.77C310.653 636.601 316.247 636.986 319.82 636.878C332.647 636.67 345.382 636.973 358.188 636.906C371.662 637.038 386.469 637.505 399.805 636.5L401.187 636.87C403.179 636.802 405.881 636.949 407.931 636.996C409.945 630.766 411.014 627.465 414.185 621.776Z"/><path fill="#A77C57" transform="scale(2 2)" d="M234.442 445.171C237.32 442.915 249.957 436.162 253.626 434.123C252.953 437.103 253.068 439.374 253.039 442.411C251.792 443.154 244.144 447.782 243.03 448.184L242.727 446.915C239.556 444.918 238.088 444.698 234.442 445.171Z"/></svg>