<?xml version="1.0" encoding="utf-8" ?><svg xmlns="http://www.w3.org/2000/svg" xmlns:xlink="http://www.w3.org/1999/xlink" viewBox="480 430 1870 660"><path fill="#092F54" transform="scale(2 2)" d="M1014.38 267.28C1032.97 267.575 1064.55 265.144 1081.83 269.739C1114.78 278.499 1120.47 323.979 1087.14 341.152C1095.23 352.604 1104.44 365.419 1111.69 377.261L1101.02 377.11C1095.46 377.012 1089.7 377.076 1084.11 377.064L1063.43 345.217C1055.48 344.625 1047.08 344.799 1039.07 344.818C1038.94 355.363 1039.16 366.333 1039.3 376.893L1014.5 376.988L1014.38 267.28ZM1039.32 325.453C1053.22 325.065 1068.74 327.812 1079.23 319.384C1088.13 308.583 1085.48 292.271 1070.97 288.354C1061.9 285.905 1049.03 287.472 1039.33 287.189C1039.27 299.696 1038.99 313.009 1039.32 325.453Z"/><path fill="#092F54" transform="scale(2 2)" d="M627.109 267.36C644.074 267.075 678.191 265.391 693.588 269.257C727.564 277.788 733.58 322.273 700.116 341.13C707.122 352.544 716.915 366.095 724.597 377.325L711.939 377.126C707.045 377.15 702.15 377.078 697.259 376.908C690.728 368.383 681.975 354.006 676.106 344.733C667.964 344.634 659.821 344.65 651.68 344.781C651.564 355.446 651.675 366.31 651.677 376.993C643.67 376.846 635.436 376.956 627.411 376.967C627.077 340.714 627.929 303.402 627.109 267.36ZM651.732 325.348C664.216 325.301 681.006 327.271 690.893 320.306C695.485 315.527 696.871 312.304 696.935 305.598C697.152 282.808 666.998 286.861 651.669 287.056C651.674 299.713 651.521 312.72 651.732 325.348Z"/><path fill="#89BF61" transform="scale(2 2)" d="M570.775 235.565C571.323 238.576 571.336 251.612 571.41 255.377C548.594 279.681 523.048 303.008 500.005 327.25C491.291 336.416 481.036 347.089 471.718 355.42C464.123 348.729 450.813 333.701 443.675 326.075C423.761 344.661 399.737 369.911 380.411 389.812C332.564 372.948 300.397 363.521 250.857 384.848C249.75 385.439 249.824 385.498 248.592 385.403C247.499 382.233 247.972 372.908 248.02 369.072C293.051 350.213 332.745 356.27 377.061 371.935C399.233 350.103 420.83 327.148 443.152 305.427C452.29 313.719 463.245 325.234 472.198 334.107C504.187 302.242 538.351 266.042 570.775 235.565Z"/><path fill="#092F54" transform="scale(2 2)" d="M909.332 267.479C935.069 266.51 966.1 267.299 992.207 267.297L992.221 287.249L933.856 287.33L933.779 311.393L985.073 311.263L985.084 330.682L935.048 330.82L934.099 331.088C933.47 334.443 933.76 352.638 933.774 357.121L994.809 356.974L994.771 376.946L908.985 376.917C909.333 340.439 909.448 303.959 909.332 267.479Z"/><path fill="#092F54" transform="scale(2 2)" d="M872.907 267.199L897.923 267.214C895.878 273.054 891.122 283.394 888.563 289.383L851.239 377.003L827.216 376.98C815.263 351.852 805.123 324.957 794.041 299.384C789.565 289.056 784.721 277.687 780.942 267.155C789.375 267.321 798.367 267.169 806.844 267.172L839.666 346.461C850.905 320.107 861.985 293.686 872.907 267.199Z"/><path fill="#139DC9" transform="scale(2 2)" d="M487.002 360.762C490.477 362.619 493.364 371.985 494.457 375.982C497.166 385.886 497.398 396.265 494.499 406.157C490.351 420.429 480.692 432.462 467.657 439.598C441.193 453.857 415.726 439.951 391.028 429.163C342.074 407.781 301.881 393.925 251.943 421.101C250.478 422.113 250.233 422.245 248.534 422.77C246.429 420.777 247.487 409.1 247.504 405.69C295.567 376.801 347.228 391.837 394.256 413.095C402.871 416.989 426.422 427.45 434.527 429.043C441.39 430.372 448.481 429.898 455.107 427.668C464.925 424.205 472.945 416.946 477.367 407.519C483.089 395.323 481.143 383.647 476.702 371.583C480.15 368.053 483.595 364.346 487.002 360.762Z"/><path fill="#4CC8C7" transform="scale(2 2)" d="M430.402 224.779C436.388 224.164 446.988 224.597 452.98 225.152C483.84 228.014 506.05 237.11 531.344 254.407C527.344 257.841 523.008 262.278 519.188 266.011C496.099 251.74 476.209 243.141 448.604 241.445C409.46 239.04 371.972 251.11 342.508 277.19C323.049 292.772 308.027 319.1 300.529 342.645C294.812 343.09 289.259 343.304 283.529 343.524C288.877 321.704 301.882 297.393 316.76 280.605C347.875 245.497 384.152 228.067 430.402 224.779Z"/><path fill="#89BF61" transform="scale(2 2)" d="M853.874 396.793C858.684 396.645 863.498 396.677 868.306 396.888C873.019 401.48 880.921 412.525 885.53 418.292C894.297 429.262 903.223 440.295 911.846 451.355C911.205 434.372 911.713 414.469 911.618 397.091C917.944 396.86 924.276 396.778 930.606 396.845C930.704 419.269 930.748 459.941 930.708 484.103C930.452 484.449 930.197 484.794 929.941 485.139L915.137 485.077C910.396 480.017 902.707 469.674 898.372 464.12L871.337 429.802C871.589 448.075 871.452 466.648 871.472 484.939C865.755 484.625 858.524 484.849 852.69 484.88C852.53 466.331 852.469 447.781 852.506 429.231C852.497 419.735 852.103 406.787 852.612 397.513L853.874 396.793Z"/><path fill="#89BF61" transform="scale(2 2)" d="M299.152 455.166L312.035 455.07C315.033 460.56 319.595 467.464 323.331 472.405C346.874 503.735 382.057 524.241 420.916 529.28C462.312 534.873 496.955 523.074 529.719 498.193C533.107 501.018 538.2 506.63 541.414 509.987L534.525 515.138C518.85 526.602 503.367 534.835 484.566 540.272C442.962 552.416 398.225 547.338 360.4 526.178C332.473 510.705 309.725 486.464 294.823 457.753C294.348 456.838 295.029 456.159 295.504 455.513L299.152 455.166Z"/><path fill="#89BF61" transform="scale(2 2)" d="M980.762 396.525L999.211 396.5C1004.1 405.713 1009.53 418.602 1013.93 428.352L1039.59 485.096L1019.27 485.049C1016.66 479.755 1013.62 471.688 1011.3 466.059L1000.95 466.02C990.348 466.121 979.75 466.025 969.156 465.733C967.074 472.069 964.058 478.865 961.46 485.071L941.98 485.073C949.782 466.727 957.725 448.44 965.807 430.216C970.052 420.46 975.963 405.639 980.762 396.525ZM975.414 451.019L992.414 450.97L1004.95 450.908C1001.59 442.807 993.736 422.184 990.096 415.436C985.283 427.331 980.389 439.192 975.414 451.019Z"/><path fill="#092F54" transform="scale(2 2)" d="M302.229 423.652C333.13 421.547 368.426 436.894 396.373 449.395C427.258 463.21 451.852 470.92 482.857 451.04L494.203 462.189C473.942 476.819 453.199 481.437 428.693 477.715C394.566 471.079 353.299 442.509 315.691 439.857C284.961 437.69 269.642 446.856 247.442 465.604L247.398 444.57C266.532 430.679 278.495 425.726 302.229 423.652Z"/><path fill="#89BF61" transform="scale(2 2)" d="M794.53 395.42C794.953 395.399 795.376 395.385 795.8 395.379C811.947 395.033 822.618 398.309 834.617 409.821L822.657 421.057C806.223 409.007 782.154 406.591 772.738 428.131C769.368 435.89 769.268 444.681 772.46 452.515C779.799 470.764 798.674 473.262 815.173 466.165C815.153 461.823 814.805 442.587 815.611 439.637L816.9 439.138L832.462 439.195L832.654 475.859C814.395 487.983 787.388 490.4 769.066 477.113C749.229 462.741 745.533 432.063 760.498 412.909C769.513 401.37 780.577 397.182 794.53 395.42Z"/><path fill="#139DC9" transform="scale(2 2)" d="M562.297 284.695C564.344 286.19 568.615 292.308 570.165 294.552C584.069 314.777 593.057 337.972 596.412 362.287C603.001 405.128 592.189 448.826 566.383 483.647C563.8 487.11 558.446 495.439 554.716 495.981L552.892 494.308C550.136 491.334 546.937 488.188 544.079 485.27C593.232 428.597 595.048 356.503 550.996 296.224L562.297 284.695Z"/><path fill="#89BF61" transform="scale(2 2)" d="M658.603 395.406C672.6 394.522 682.016 396.874 694.461 402.819L688.773 417.542C678.795 413.132 658.161 405.611 649.126 415.365C636.966 429.03 668.676 433.527 677.033 436.173C696.214 442.247 704.369 458.407 691.816 475.675C685.606 484.22 672.41 485.566 662.244 486.351C647.63 485.078 640.194 484.288 627.394 476.186C629.217 471.356 631.322 466.363 633.263 461.556C644.787 467.852 652.908 472.122 666.914 470.499C672.158 469.891 680.447 466.647 678.82 459.713C676.904 452.27 666.491 449.593 659.219 448.228C635.953 443.86 618.661 432.002 633.361 406.869C637.787 399.303 649.727 396.608 658.603 395.406Z"/><path fill="#4CC8C7" transform="scale(2 2)" d="M426.98 261.517C455.013 259.401 480.81 264.362 504.18 280.398L493.264 291.482C480.541 284.131 467.676 279.439 453.028 277.457C423.535 273.485 393.685 281.551 370.203 299.837C354.286 312.224 344.603 326.868 336.335 344.902C331.473 344.573 325.197 343.633 320.268 343.032C338.738 295.57 376.688 267.024 426.98 261.517Z"/><path fill="#092F54" transform="scale(2 2)" d="M742.827 267.243L767.615 267.178C766.748 301.857 767.476 341.977 767.66 376.936L742.96 377.007L742.827 267.243Z"/><path fill="#139DC9" transform="scale(2 2)" d="M537.472 310.299C542.111 313.056 550.475 329.675 552.765 334.592C567.186 364.904 568.76 399.755 557.13 431.244C552.391 444.199 546.217 455.319 537.636 466.062C535.996 468.115 534.174 471.315 531.928 472.357L530.421 471.424L520.924 461.617C555.686 419.254 559.214 366.018 526.291 321.262C529.865 317.618 533.807 313.891 537.472 310.299Z"/><path fill="#2161BB" transform="scale(2 2)" d="M371.186 473.147C415.94 501.444 462.579 507.262 506.792 473.86C510.224 476.99 514.645 481.83 517.968 485.261C514.898 487.864 511.636 490.042 508.334 492.336C494.02 501.903 477.788 508.222 460.775 510.85C423.93 516.586 390.207 506.257 360.456 484.572C364.231 480.786 367.596 477.111 371.186 473.147Z"/><path fill="#89BF61" transform="scale(2 2)" d="M1050.17 396.743C1056.31 396.514 1063.02 396.63 1069.2 396.619C1070.44 417.02 1069.55 447.713 1069.6 468.861C1083.41 468.385 1099.06 468.761 1113 468.783L1112.99 485.042L1050.53 485.043L1050.17 396.743Z"/><path fill="#2161BB" transform="scale(2 2)" d="M512.405 335.276C519.84 341.825 527.32 362.119 529.347 371.857C534.176 395.751 529.227 420.585 515.607 440.801C514.257 442.84 510.466 448.621 508.381 449.044L506.24 446.941C504.004 444.289 500.4 440.989 497.84 438.503C520.974 408.98 521.236 376.925 500.915 345.977C504.726 342.617 508.674 338.776 512.405 335.276Z"/><path fill="#89BF61" transform="scale(2 2)" d="M714.817 396.572L733.765 396.519C733.758 404.664 734.242 482.758 732.979 484.79C727.102 484.621 720.966 484.768 715.066 484.827L714.817 396.572Z"/><path fill="#2161BB" transform="scale(2 2)" d="M436.447 370.728C443.647 368.836 451.308 370.958 456.51 376.284C461.712 381.61 463.654 389.321 461.595 396.476C459.535 403.632 453.793 409.13 446.556 410.875C435.524 413.535 424.408 406.813 421.636 395.806C418.865 384.799 425.471 373.612 436.447 370.728Z"/><path fill="#4CC8C7" transform="scale(2 2)" d="M430.001 295.654L430.475 296C430.047 297.586 415.317 313.612 413.903 314.218C391.747 323.71 381.541 332.756 369.149 353.771C366.06 352.981 362.235 351.597 359.145 350.577C356.738 349.699 356.522 350.089 355.354 348.23C355.672 344.53 363.331 333.225 365.991 329.997C383.79 308.402 402.924 298.941 430.001 295.654Z"/></svg>