<?xml version="1.0" encoding="utf-8" ?><svg xmlns="http://www.w3.org/2000/svg" xmlns:xlink="http://www.w3.org/1999/xlink" width="2816" height="1536" viewBox="0 0 2816 1536"><path fill="#03274B" d="M2089.64 525.316C2104.93 524.648 2126.92 525.059 2142.77 525.108C2179.2 525.221 2228.83 519.796 2258.87 543.341L2260.4 544.432C2267.51 549.386 2270.92 553.526 2275.94 560.594C2287.67 581.069 2292.47 604.091 2286.17 627.264C2284.97 631.721 2283.47 636.093 2281.68 640.349C2278.55 646.866 2276.34 650.051 2272.2 656.075C2266.51 665 2253.1 671.765 2244.31 677.609C2248.57 683.936 2253.1 690.45 2257.15 696.882C2260.47 701.747 2268.32 714.111 2271.45 717.973L2272.85 720.391C2275.27 723.826 2280.89 731.418 2282.65 734.792C2286.68 739.918 2291.83 746.897 2296.41 751.281C2282.56 751.814 2249.54 752.542 2237.31 751.036C2231.17 750.28 2195.58 693.457 2189.64 685.921C2174.26 685.617 2158.87 685.507 2143.48 685.593C2143.14 704.421 2142.12 730.84 2143.18 749.451C2137.7 753.606 2098.99 751.789 2089.83 751.486C2088.31 676.979 2089.72 600.09 2089.64 525.316ZM2141.61 643.951C2171.41 644.18 2211.72 651.047 2229.96 621.998C2235.05 611.874 2234.65 603.029 2231.48 592.558C2231.08 592.114 2229.73 589.165 2229.31 588.435C2221.99 575.841 2215.6 571.794 2201.93 567.877C2188.89 566.114 2156.09 567.105 2141.8 567.343C2142.73 573.705 2142.14 588.492 2142.04 595.451L2141.61 643.951Z"/><path fill="#051E3D" d="M2089.64 525.316C2104.93 524.648 2126.92 525.059 2142.77 525.108C2179.2 525.221 2228.83 519.796 2258.87 543.341C2253.75 543.197 2229.6 543.263 2227.45 541.807L2228.14 540.691L2227.76 542.397L2228.96 540.453C2231.62 540.299 2237.04 540.433 2238.84 538.963C2230.99 523.659 2118.22 531.723 2096.5 531.448C2094.19 597.853 2097.23 664.599 2096.05 731.06C2095.97 735.261 2097.97 743.262 2097.42 746.669C2090.99 728.241 2097.38 614.854 2094.62 610.609L2094.49 748.48C2110.46 748.973 2127.55 748.722 2143.18 749.451C2137.7 753.606 2098.99 751.789 2089.83 751.486C2088.31 676.979 2089.72 600.09 2089.64 525.316Z"/><path fill="#051E3D" d="M2260.4 544.432C2267.51 549.386 2270.92 553.526 2275.94 560.594C2270.36 559.882 2259.03 562.813 2257.37 556.457C2256.2 551.949 2258.91 549.573 2260 545.829L2260.4 544.432Z"/><path fill="#001736" d="M2271.45 717.973C2268.77 718.612 2267.98 719.013 2265.26 718.351C2264.68 715.991 2264.32 713.437 2261.44 713.379C2260.69 716.109 2260.47 718.358 2258.42 720.162L2256.98 719.888C2254.68 716.622 2256.74 701.65 2257.15 696.882C2260.47 701.747 2268.32 714.111 2271.45 717.973Z"/><path fill="#001736" d="M2272.2 656.075C2272.08 650.738 2271.41 629.214 2272.98 625.179C2276.83 632.025 2274.41 639.302 2281.68 640.349C2278.55 646.866 2276.34 650.051 2272.2 656.075Z"/><path fill="#051E3D" d="M2272.85 720.391C2275.27 723.826 2280.89 731.418 2282.65 734.792C2280.55 735.783 2279.48 738.011 2278.13 740.046C2274.93 741.569 2276.42 741.58 2273.54 740.68C2270.41 735.641 2272.2 726.536 2272.85 720.391Z"/><path fill="#001736" d="M2141.8 567.343C2142.17 563.296 2141.51 564.759 2143.97 561.638C2153.82 556.592 2177.17 560.465 2188.54 561.317C2196.12 561.884 2217.46 559.664 2222.85 562.597L2222.6 563.662C2212.84 565.88 2206.38 560.906 2201.93 567.877C2188.89 566.114 2156.09 567.105 2141.8 567.343Z"/><path fill="#001736" d="M2238 574.057C2239.78 589.845 2239.84 623.262 2237.09 638.802C2236.62 633.597 2236.96 628.265 2234.38 624.175C2232.8 623.268 2231.72 622.552 2229.96 621.998C2235.05 611.874 2234.65 603.029 2231.48 592.558C2236.52 589.172 2236.11 581.21 2238 574.057Z"/><path fill="#051E3D" d="M2146.06 652.423C2157.37 653.158 2204.14 650.268 2208.64 654.238L2207.74 655.766C2198.22 656.161 2150.66 658.526 2144.65 654.076L2146.06 652.423Z"/><path fill="#03274B" d="M1285.32 525.723C1311.67 522.608 1396.99 522.817 1421.46 528.388C1433.27 531.076 1442.92 535.683 1452.95 542.362C1458.86 547.153 1469.23 556.556 1471.7 563.943C1485.51 585.268 1485.13 623.497 1471.66 645.064C1469.84 649.02 1465.2 655.587 1462.21 658.765L1456.92 664.338C1450.23 671.118 1445.61 673.108 1440.02 678.235L1448.72 690.861C1463.64 712.532 1473.17 730.202 1490.31 751.233C1473.64 751.576 1448.25 752.182 1432.01 751.358C1419.06 741.115 1396.25 701.404 1386.53 685.493C1371.22 685.478 1353.99 685.106 1338.84 685.564C1339.03 705.303 1338.56 730.372 1339.62 749.734C1333.91 753.046 1295.58 751.536 1286.92 751.173C1285.93 733.148 1286.25 710.071 1286.01 691.726C1285.59 648.321 1285.53 604.913 1285.82 561.507C1284.84 551.061 1285.26 536.445 1285.32 525.723ZM1339.72 567.383C1339.57 574.801 1339.64 585.482 1339.1 592.673C1340.15 599.445 1339.49 635.487 1339.46 644.076C1366.6 643.871 1418.54 651.011 1427.83 614.819C1434.48 588.947 1416.13 572.625 1391.95 567.016C1374.9 567.707 1356.07 566.468 1339.72 567.383Z"/><path fill="#001736" d="M1285.82 561.507C1286.3 553.533 1286.16 545.156 1287.65 537.469L1288.56 544.548C1291.55 542.565 1292.58 541.573 1295.98 540.795C1295.1 583.501 1296.33 628.204 1295.88 671.125C1295.7 688.571 1294.79 733.495 1296.81 748.655C1306.65 748.707 1318.2 748.494 1327.89 748.974C1327.9 737.169 1326.08 695.353 1329.86 687.197C1336.17 696.431 1323.58 746.907 1334.99 749.323C1336.48 749.637 1338.11 749.653 1339.62 749.734C1333.91 753.046 1295.58 751.536 1286.92 751.173C1285.93 733.148 1286.25 710.071 1286.01 691.726C1285.59 648.321 1285.53 604.913 1285.82 561.507Z"/><path fill="#051E3D" d="M1285.32 525.723C1311.67 522.608 1396.99 522.817 1421.46 528.388C1433.27 531.076 1442.92 535.683 1452.95 542.362C1449.58 542.3 1445.24 542.539 1442.46 540.585C1442.12 540.333 1441.79 540.081 1441.45 539.829C1435.28 536.794 1412.2 531.389 1405.68 531.137C1387.06 530.416 1311.45 528.115 1298.17 532.532C1295.9 535.031 1296.22 537.298 1295.98 540.795C1292.58 541.573 1291.55 542.565 1288.56 544.548L1287.65 537.469C1286.16 545.156 1286.3 553.533 1285.82 561.507C1284.84 551.061 1285.26 536.445 1285.32 525.723Z"/><path fill="#051E3D" d="M1471.7 563.943C1485.51 585.268 1485.13 623.497 1471.66 645.064C1470.84 619.784 1473.61 588.254 1471.7 563.943Z"/><path fill="#051E3D" d="M1448.72 690.861C1441.35 693.279 1445.74 697.762 1441.48 701.26C1438.69 697.653 1436.15 679.979 1439.05 676.691L1440.02 678.235L1448.72 690.861Z"/><path fill="#051E3D" d="M1456.92 664.338C1452.44 656.951 1446.23 663.134 1440.99 658.487L1441.53 656.892C1448.83 652.541 1449.75 661.47 1456.84 650.544C1460.46 653.614 1456.15 653.423 1462.21 658.765L1456.92 664.338Z"/><path fill="#001736" d="M1337.35 561.227C1360.72 559.376 1390.79 558.925 1413.79 563.65C1408.9 563.901 1396.3 563.556 1392.76 564.578L1391.95 567.016C1374.9 567.707 1356.07 566.468 1339.72 567.383C1339.57 574.801 1339.64 585.482 1339.1 592.673C1336.54 586.593 1337.02 568.167 1337.35 561.227Z"/><path fill="#001736" d="M1328.38 573.807C1331.81 577.489 1331.01 631.873 1331.04 641.729L1329.11 641.698C1326.69 636.518 1327.86 582.533 1328.38 573.807Z"/><defs><linearGradient id="gradient_0" gradientUnits="userSpaceOnUse" x1="1067.8312" y1="547.68085" x2="826.53925" y2="709.37988"><stop offset="0" stop-color="#6ACEA6"/><stop offset="1" stop-color="#3FA7B6"/></linearGradient></defs><path fill="url(#gradient_0)" d="M699.801 508.262C708.914 499.893 725.123 490.287 736.142 484.386C798.839 450.742 869.931 440.228 939.963 434.754C954.524 433.616 969.228 432.699 983.857 432.667C998.049 432.636 1004.48 439.896 1003.73 453.989C1002.99 468.105 992.142 469.91 980.666 471.314C947.173 476.296 913.713 488.366 883.249 502.667C854.818 516.014 799.731 558.005 830.266 592.759C862.526 629.477 928.733 639.888 974.468 651.251C996.155 656.586 1017.63 662.75 1038.84 669.73C1080.61 683.764 1143 715.439 1168.47 752.952C1168.99 757.128 1170.47 762.895 1168.92 766.155L1165.95 766.841C1150.25 769.441 1152.89 772.861 1141.63 759.298C1138.11 755.057 1137.26 755.279 1132.2 755.431C1129.35 750.748 1134.21 748.334 1131.02 743.649L1127.43 745.843L1126 745.204L1125.41 742.487C1127.17 738.31 1127.46 740.231 1131.14 736.626C1127 735.238 1113.15 736.308 1112.15 742.017C1113.85 746.002 1116.23 747.694 1119.43 750.644L1119.58 758.342C1079.93 721.523 1022.61 703.742 970.548 689.694C914.197 674.489 848.658 665.016 803.884 622.206C791.467 610.333 779.458 590.412 780.711 573.015C783.688 531.698 804.985 514.897 831.028 489.579C780.429 503.612 734.88 521.85 699.493 562.081C698.571 545.897 718.862 543.514 713.858 535.6C699.896 534.686 708.623 523.239 702.942 515.82C699.566 515.489 700.03 515.988 696.399 517.844C698.647 514.064 699.734 512.778 699.801 508.262Z"/><path fill="#448893" d="M1284.94 1025.53L1285.11 882.973C1285.09 874.021 1283.46 807.015 1287.05 803.305C1295.51 800.684 1346.08 802.055 1358.27 802.165C1377.73 801.592 1409.89 800.941 1428.09 808.221C1433.12 809.575 1436.79 811.654 1441.21 814.381C1445.76 816.095 1449.64 819.671 1453.61 822.578C1463.72 831.24 1467.41 836.344 1474.44 847.759C1493.41 891.369 1476.54 935.877 1432.17 953.906C1405.02 964.936 1368.9 961.918 1339.76 961.964C1339.74 980.018 1338.96 1005.84 1340.16 1023.19C1336.69 1027.32 1292.53 1025.57 1284.94 1025.53ZM1339.54 918.258C1364.26 918.491 1395.69 921.114 1416.64 906.965C1431.75 895.06 1430.02 872.738 1418.74 859.507C1403.02 841.069 1361.7 844.948 1339.54 846.183L1339.54 918.258Z"/><path fill="#397A82" d="M1284.94 1025.53L1285.11 882.973C1285.09 874.021 1283.46 807.015 1287.05 803.305C1295.51 800.684 1346.08 802.055 1358.27 802.165C1377.73 801.592 1409.89 800.941 1428.09 808.221C1433.12 809.575 1436.79 811.654 1441.21 814.381C1435.11 813.797 1429.35 813.909 1423.24 814.379C1380.93 817.639 1338.46 814.784 1296.13 815.991C1293.35 872.899 1297.79 932.328 1295.49 989.498C1295.08 999.659 1295.19 1011.77 1296.08 1021.89C1306.58 1022.29 1331.9 1021.85 1340.16 1023.19C1336.69 1027.32 1292.53 1025.57 1284.94 1025.53Z"/><path fill="#448893" d="M1358.27 802.165C1377.73 801.592 1409.89 800.941 1428.09 808.221L1426.77 810.702C1422.22 813.005 1392.36 813.728 1386.53 813.105C1371.92 811.544 1298.22 816.827 1290.83 807.736C1293.38 799.33 1349.72 809.448 1358.27 802.165Z"/><path fill="#397A82" d="M1453.61 822.578C1463.72 831.24 1467.41 836.344 1474.44 847.759C1469.66 847.309 1462.33 848.116 1458.94 844.803C1454.81 840.77 1453.68 828.2 1453.61 822.578Z"/><path fill="#448893" d="M1535.36 891.856C1540.11 881.069 1567.24 812.355 1578.4 804.303C1580.48 802.803 1626.9 803.136 1630.8 805.092C1634.64 810.975 1640.06 822.517 1643.32 829.168C1645.91 834.399 1663.05 867.945 1663.81 871.998C1666.6 877.391 1669.27 882.847 1671.82 888.361L1673.46 892.701C1675.63 897.013 1678.02 901.465 1679.66 905.986C1682.73 913.234 1685.94 921.285 1689.48 928.249C1690.5 930.531 1696.53 942.578 1696.85 944.008C1698.72 947.548 1702.5 956.008 1704.01 958.485C1709.47 970.098 1729.34 1012.83 1731.31 1023.49L1730.07 1024.78C1724.77 1026.24 1687.95 1026.9 1681.38 1024.3C1678.93 1023.33 1674.7 1020.82 1673.47 1018.51C1667.37 1007.13 1660.88 991.583 1655.48 979.762C1640.3 979.829 1625.12 979.748 1609.94 979.519C1594.95 979.173 1565.91 977.694 1552.34 980.537C1545.2 985.497 1538.23 1020.95 1529.93 1022.97C1520.76 1025.22 1485.25 1026.24 1477.33 1022.29C1476.32 1016.54 1520.09 925.881 1525.71 911.982C1529.12 905.518 1532.26 898.504 1535.36 891.856ZM1575.93 920.095C1574.32 925.398 1572.68 930.689 1570.99 935.967C1591.48 936.913 1621.02 935.287 1638.77 936.861C1632.91 924.216 1608.84 869.461 1601.59 861.331L1600 862.002C1596.66 866.457 1593.23 876.968 1591.71 882.469C1588.23 887.769 1585.43 898.783 1582.49 904.983C1581 908.61 1577.72 917.112 1575.93 920.095Z"/><path fill="#397A82" d="M1630.8 805.092C1634.64 810.975 1640.06 822.517 1643.32 829.168C1637.7 828.965 1637.05 830.915 1632.45 829.433C1631.18 826.614 1632.98 818.519 1633.53 815.023C1622.22 815.44 1588.04 818.179 1580.53 813.754L1581.04 812.243C1591.05 810.864 1618.42 814.652 1630.36 812.664L1630.8 805.092Z"/><path fill="#397A82" d="M1535.36 891.856C1535.67 904.7 1535.93 913.642 1534.78 926.391L1533.42 927.158C1530.22 922.579 1533.63 915.522 1530.48 912.388L1525.71 911.982C1529.12 905.518 1532.26 898.504 1535.36 891.856Z"/><path fill="#397A82" d="M1679.66 905.986C1682.73 913.234 1685.94 921.285 1689.48 928.249C1687.64 928.189 1685.82 928.196 1683.98 928.189L1683.14 929.591C1683.35 932.889 1683.64 940.97 1681.72 943.455C1679.88 938.862 1679.61 912.386 1679.66 905.986Z"/><path fill="#397A82" d="M1663.81 871.998C1666.6 877.391 1669.27 882.847 1671.82 888.361C1667.86 889.205 1669.13 888.319 1667.11 891.421C1666.9 894.909 1666.97 896.47 1667.28 899.956C1667.18 901.997 1666.98 903.219 1666.69 905.214L1665.74 905.211C1664.17 899.276 1663.48 878.17 1663.81 871.998Z"/><path fill="#397A82" d="M1696.85 944.008C1698.72 947.548 1702.5 956.008 1704.01 958.485C1701.38 958.892 1701.46 958.885 1699.06 960.047C1698.47 964.188 1699.48 968.267 1698.49 975.008L1697.67 975.248C1694.93 968.377 1696.63 952.311 1696.85 944.008Z"/><path fill="#43A7B6" d="M1667.28 899.956C1666.97 896.47 1666.9 894.909 1667.11 891.421C1669.13 888.319 1667.86 889.205 1671.82 888.361L1673.46 892.701C1673.9 898.52 1674.73 901.034 1672.46 906.339L1670.98 906.667C1668.47 903.894 1668.48 903.597 1667.28 899.956Z"/><path fill="#397A82" d="M1638.77 936.861C1635.4 943.261 1619.99 944.284 1613.63 943.997C1603.02 943.517 1577.53 946.03 1568.4 940.966C1567.91 940.164 1568.65 914.645 1568.65 910.917L1569.39 911.053C1571.18 914.968 1572.07 918.163 1575.93 920.095C1574.32 925.398 1572.68 930.689 1570.99 935.967C1591.48 936.913 1621.02 935.287 1638.77 936.861Z"/><path fill="#397A82" d="M1582.49 904.983C1582.52 893.442 1583.76 878.463 1584.93 866.857C1586.7 872.629 1585.75 876.261 1587.84 881.208L1591.71 882.469C1588.23 887.769 1585.43 898.783 1582.49 904.983Z"/><path fill="#397A82" d="M1517.35 945.729C1521.17 949.089 1519.37 955.031 1518.42 959.258L1516.8 958.343C1515.81 954.329 1516.8 949.947 1517.35 945.729Z"/><path fill="#448893" d="M1954.7 802.837C1962.73 802.656 1988.27 801.323 1994.01 804.27C1997.93 811.107 1996.52 875.196 1997.02 888.114C2025.78 888.105 2067.4 886.999 2094.96 888.597C2094.21 876.442 2095.19 861 2094.79 848.308C2094.37 835.289 2094.31 820.932 2094.64 807.907C2094.73 804.312 2096.25 803.938 2098.69 802.17C2108.26 803.255 2136.8 803.121 2146.99 802.504L2150.38 804.397C2151.99 811.552 2151.41 1018.63 2150.31 1022.95C2150.12 1023.69 2149.54 1024.29 2149.16 1024.95L2147.08 1026.13C2138.51 1024.68 2106.45 1025.54 2095.68 1025.39C2095.18 1019.73 2095.35 1014.06 2095.35 1008.39C2095.34 983.793 2095.82 959.181 2094.85 934.595C2063.97 933.413 2027.45 934.368 1996.22 934.496C1996.31 964.307 1995.72 995.725 1996.52 1025.38C1982.77 1026.22 1958.92 1025.82 1945 1025.36C1942.99 1024.05 1942.81 1022.74 1942.71 1020.57C1942.12 1007.71 1942.16 994.694 1941.99 981.822C1941.54 956.107 1941.35 930.389 1941.42 904.67C1941.44 893.376 1940.08 807.612 1943.24 803.858C1947 802.1 1950.45 802.682 1954.7 802.837Z"/><path fill="#397A82" d="M1945 1025.36C1942.99 1024.05 1942.81 1022.74 1942.71 1020.57C1942.12 1007.71 1942.16 994.694 1941.99 981.822C1941.54 956.107 1941.35 930.389 1941.42 904.67C1941.44 893.376 1940.08 807.612 1943.24 803.858C1947 802.1 1950.45 802.682 1954.7 802.837C1951.46 804.024 1948.91 804.455 1947.05 807.187L1947.14 809.054C1955.67 816.35 1979.8 811.592 1986.9 813.131L1986.77 814.243C1975.64 818.34 1966.32 814.394 1952.12 816.547C1949.02 843.939 1955.46 1007.21 1949.6 1019.32C1945.29 1022.5 1946.35 1020.86 1945 1025.36Z"/><path fill="#397A82" d="M2098.69 802.17C2108.26 803.255 2136.8 803.121 2146.99 802.504L2150.38 804.397C2151.99 811.552 2151.41 1018.63 2150.31 1022.95C2150.12 1023.69 2149.54 1024.29 2149.16 1024.95L2147.08 1026.13C2145.93 1020.43 2146.71 972.731 2146.73 964.285L2146.76 815.651C2131.04 814.932 2114.73 815.469 2098.96 815.743C2099.28 836.773 2099.99 864.075 2098.18 885.28C2097.98 887.537 2096.76 887.634 2094.96 888.597C2094.21 876.442 2095.19 861 2094.79 848.308C2094.37 835.289 2094.31 820.932 2094.64 807.907C2094.73 804.312 2096.25 803.938 2098.69 802.17Z"/><path fill="#448893" d="M2098.69 802.17C2108.26 803.255 2136.8 803.121 2146.99 802.504C2147.05 805.895 2147.4 809.728 2145.52 812.377C2141.08 813.611 2105.93 812.961 2100.7 812.23C2098.61 809.21 2098.92 805.984 2098.69 802.17Z"/><path fill="#03274B" d="M1870.22 524.817C1879.83 523.878 1898.07 524.239 1908.12 524.173C1936.31 523.903 1964.52 523.993 1992.71 524.444C2008.29 524.636 2031 525.51 2045.95 524.546C2045 534.023 2046.07 561.71 2044.11 567.345C2032.26 566.773 2019.51 566.766 2007.62 566.968C1980.87 567.423 1953.52 566.32 1926.83 567.31C1926.91 574.535 1927.45 596.673 1926.3 603.27C1926.29 606.426 1925.83 611.221 1927.29 613.747C1935.01 615.607 1948.12 614.471 1956.39 614.82C1979.55 615.797 2009.64 613.282 2032.2 615.056C2032.22 621.89 2033.39 653.752 2030.68 657.605L1963.49 657.468C1953.52 657.461 1937.37 657.87 1927.95 656.81C1923.81 657.058 1924.72 656.386 1922.02 658.553C1919.41 668.604 1918.87 695.515 1920.64 705.739L1923.08 708.348C1922.74 710.931 1921.6 712.059 1920.07 714.175C1920.25 717.684 1919.88 716.371 1922.94 719.487C1929.42 720.312 1935.06 719.793 1941.45 720.035C1975.74 721.329 2012.31 719.555 2046.39 721.036C2048.85 733.289 2046.85 740.893 2047.9 751.623C1992.83 754.082 1935.71 749.941 1880.48 752.045C1877.28 752.166 1873.17 752.346 1870.47 750.604L1870.31 748.65C1868.68 735.547 1869.77 689.315 1869.78 674.338C1869.66 624.497 1869.8 574.656 1870.22 524.817Z"/><path fill="#051E3D" d="M1870.22 524.817C1879.83 523.878 1898.07 524.239 1908.12 524.173C1936.31 523.903 1964.52 523.993 1992.71 524.444C2008.29 524.636 2031 525.51 2045.95 524.546C2045 534.023 2046.07 561.71 2044.11 567.345C2032.26 566.773 2019.51 566.766 2007.62 566.968C1980.87 567.423 1953.52 566.32 1926.83 567.31C1926.91 574.535 1927.45 596.673 1926.3 603.27C1923.39 606.17 1924.39 606.372 1922.9 610.837L1924.09 606.384L1922.82 605.953L1924.43 605.594L1922.85 604.919C1922.9 600.573 1923.38 580.522 1922.72 577.439C1920.97 587.42 1921.45 611.048 1921.49 621.749C1926.88 622.449 1935.28 622.465 1939.56 624.133L1920.33 623.773C1919.87 614.033 1919.54 569.336 1922.97 562.012C1934.78 556.623 2011.76 560.652 2031.64 560.565L2032.47 529.685C1979.77 531.835 1928.86 530.069 1876.68 532.006C1872.8 544.618 1873.79 566.817 1873.76 580.74L1873.52 660.274C1873.54 676.812 1874.72 735.627 1870.31 748.65C1868.68 735.547 1869.77 689.315 1869.78 674.338C1869.66 624.497 1869.8 574.656 1870.22 524.817Z"/><path fill="#001736" d="M1921.49 621.749C1921.45 611.048 1920.97 587.42 1922.72 577.439C1923.38 580.522 1922.9 600.573 1922.85 604.919L1924.43 605.594L1922.82 605.953L1924.09 606.384L1922.9 610.837C1924.39 606.372 1923.39 606.17 1926.3 603.27C1926.29 606.426 1925.83 611.221 1927.29 613.747C1935.01 615.607 1948.12 614.471 1956.39 614.82C1979.55 615.797 2009.64 613.282 2032.2 615.056C2032.22 621.89 2033.39 653.752 2030.68 657.605C2026.77 645.368 2031.43 635.026 2026.99 625.77C2018.52 622.351 1957.87 626.133 1941.04 624.301L1939.56 624.133C1935.28 622.465 1926.88 622.449 1921.49 621.749Z"/><path fill="#03274B" d="M1601.47 526.77C1617.21 524.398 1635.92 525.49 1651.94 525.593C1656.81 525.624 1657.65 526.375 1660.7 529.581C1663.38 539.49 1677.24 568.718 1681.8 579.84C1685.54 588.987 1694.42 611.836 1698.45 619.866C1701.1 626.244 1703.87 632.577 1706.73 638.863C1708.49 641.829 1710.86 647.54 1712.36 650.918C1715.65 657.563 1718.82 664.264 1721.88 671.018C1722.31 672.455 1724.81 677.837 1725.54 679.518C1729.53 672.303 1733.18 664.264 1736.72 656.78L1742.47 644.705C1745.49 637.399 1748.78 629.056 1752.31 622.056C1754.51 616.521 1756.82 611.027 1759.22 605.576C1760 602.191 1767.04 585.712 1768.76 581.522C1770.48 577.784 1772.17 574.034 1773.84 570.273C1774.31 567.956 1778.84 557.946 1780.4 555.883C1783.4 547.175 1790.03 534.421 1794.19 525.929C1802.89 525.565 1841.01 524.747 1847.32 527.306C1846.47 531.731 1842.23 540.078 1839.83 544.011C1838.92 547.574 1828.21 569.918 1825.93 575.065C1817.19 595.282 1808.69 615.605 1800.44 636.029C1797.55 643.138 1794.95 649.321 1791.66 656.293C1789.29 662.057 1786.83 668.415 1784.11 673.973C1781.85 680.771 1778.61 688.385 1775.93 695.116C1773.58 700.924 1770.62 708.873 1767.71 714.235C1765.5 718.801 1762.06 727.06 1759.63 731.021C1758.93 735.481 1754.54 744.743 1752.89 750.018L1751.92 750.405C1745.66 753.005 1704.32 752.425 1697.88 749.424L1696.03 745.076C1691.86 737.717 1685.49 722.849 1681.71 714.774C1680.82 713.22 1679.22 709.035 1678.46 707.181C1676.11 701.765 1673.73 696.363 1671.32 690.973C1668.25 684.788 1665.18 676.72 1662.5 670.225C1660.91 666.221 1659.26 662.237 1657.57 658.273C1654.45 651.85 1649.23 638.972 1646.62 632.299C1643.33 624.407 1639.92 616.565 1636.4 608.776C1635.67 605.051 1632.05 599.491 1630.72 594.183C1629.07 591.278 1626.29 584.214 1625.24 581.028C1622.7 576.692 1615.22 559.297 1613.3 554.267C1609.53 546.875 1604.39 534.522 1601.47 526.77Z"/><path fill="#051E3D" d="M1794.19 525.929C1802.89 525.565 1841.01 524.747 1847.32 527.306C1846.47 531.731 1842.23 540.078 1839.83 544.011C1839.75 539.347 1840.67 535.089 1838.95 531.475C1831.59 528.138 1804.41 529.671 1796.49 532.049C1787.5 539.477 1793.97 562.878 1790.47 570.925L1789.41 570.303C1788.86 565.908 1789.42 560.066 1787.53 557.061C1784.82 556.278 1784.32 556.48 1781.6 556.823L1780.4 555.883C1783.4 547.175 1790.03 534.421 1794.19 525.929Z"/><path fill="#051E3D" d="M1601.47 526.77C1617.21 524.398 1635.92 525.49 1651.94 525.593C1656.81 525.624 1657.65 526.375 1660.7 529.581C1658.51 529.264 1653.81 528.25 1652.07 528.866C1649.75 532.867 1649.85 537.15 1649.42 541.871C1647.53 538.85 1647.47 533.911 1647.34 530.351C1639.89 530.052 1622.82 527.908 1618.22 532.144C1612.4 543.904 1615.65 548.31 1613.3 554.267C1609.53 546.875 1604.39 534.522 1601.47 526.77Z"/><path fill="#051E3D" d="M1681.71 714.774C1692.88 714.41 1687.26 709.129 1693.56 706.483C1696.34 709.242 1696.49 740.322 1696.03 745.076C1691.86 737.717 1685.49 722.849 1681.71 714.774Z"/><path fill="#001736" d="M1712.36 650.918C1715.65 657.563 1718.82 664.264 1721.88 671.018C1719.28 672.328 1719.42 672.295 1717.84 674.518C1717.15 679.78 1716.78 683.025 1713.54 687.257L1712.68 686.32C1711.95 674.52 1711.42 662.716 1712.36 650.918Z"/><path fill="#001736" d="M1743.45 748.877C1743.67 745.647 1743.55 742.875 1744.93 740.001C1747.61 745.541 1747.45 746.943 1752.89 750.018L1751.92 750.405C1745.66 753.005 1704.32 752.425 1697.88 749.424C1713.04 748.277 1728.26 748.095 1743.45 748.877Z"/><path fill="#001736" d="M1636.4 608.776C1645.39 608.418 1644.66 604.548 1646.65 595.753C1647.08 602.635 1648.33 626.405 1646.62 632.299C1643.33 624.407 1639.92 616.565 1636.4 608.776Z"/><path fill="#001736" d="M1698.45 619.866C1701.1 626.244 1703.87 632.577 1706.73 638.863C1704.55 638.835 1704.14 639.082 1702.07 639.683C1699.51 642.286 1698.51 650.131 1697.34 654.311L1696.65 653.969C1694.38 643.358 1696.72 630.641 1698.45 619.866Z"/><path fill="#001736" d="M1742.47 644.705C1744.58 655.525 1744.38 678.879 1742.54 689.811C1742.43 689.216 1736.82 654.911 1736.72 656.78L1742.47 644.705Z"/><path fill="#001736" d="M1775.93 695.116C1775.18 689.769 1775.88 662.883 1776.88 658.176C1780.16 665.823 1776.68 671.022 1784.11 673.973C1781.85 680.771 1778.61 688.385 1775.93 695.116Z"/><path fill="#001736" d="M1760.45 689.902C1763 698.323 1762.34 707.628 1767.71 714.235C1765.5 718.801 1762.06 727.06 1759.63 731.021C1760.7 719.577 1759.86 702.734 1760.45 689.902Z"/><path fill="#001736" d="M1773.84 570.273C1777.02 578.962 1775.72 599.45 1774.28 608.44C1773.68 604.481 1768.73 582.148 1768.76 581.522C1770.48 577.784 1772.17 574.034 1773.84 570.273Z"/><path fill="#001736" d="M1791.66 656.293C1793.01 644.139 1791.6 632.071 1792.71 619.409C1795.12 626.136 1794.95 632.721 1800.44 636.029C1797.55 643.138 1794.95 649.321 1791.66 656.293Z"/><path fill="#001736" d="M1759.22 605.576C1761.18 613.08 1759.23 635.788 1757.92 643.916C1757.05 635.833 1757.25 628.397 1752.31 622.056C1754.51 616.521 1756.82 611.027 1759.22 605.576Z"/><path fill="#001736" d="M1671.32 690.973C1680.13 687.531 1675.13 682.731 1678.14 674.571C1679.73 681.877 1680.07 700.15 1678.46 707.181C1676.11 701.765 1673.73 696.363 1671.32 690.973Z"/><path fill="#001736" d="M1625.24 581.028C1630.35 576.019 1627.65 569.002 1630.52 563.168C1630.97 568.435 1631.8 589.718 1630.72 594.183C1629.07 591.278 1626.29 584.214 1625.24 581.028Z"/><path fill="#001736" d="M1657.57 658.273C1661.46 654.342 1658.74 651.545 1661.97 643.905C1663.49 645.901 1663.71 666.862 1662.5 670.225C1660.91 666.221 1659.26 662.237 1657.57 658.273Z"/><defs><linearGradient id="gradient_1" gradientUnits="userSpaceOnUse" x1="582.35657" y1="1114.6136" x2="893.09143" y2="807.57489"><stop offset="0" stop-color="#2850A0"/><stop offset="1" stop-color="#3C9CBD"/></linearGradient></defs><path fill="url(#gradient_1)" d="M903.588 822.691C919.252 825.443 930.446 853.33 943.583 854.129C935.14 880.49 918.553 897.062 895.132 911.317C888.926 915.05 882.745 918.919 876.249 922.108C854.366 933.271 837.022 939.674 813.396 947.121L738.627 969.869C688.249 985.477 605.93 1011.28 587.836 1068.44C587.041 1071.03 586.337 1073.65 585.727 1076.3C585.646 1088.97 585.425 1097.35 571.022 1101.71C562.954 1104.15 547.099 1098.88 546.682 1089.57C545.978 1073.84 552.138 1046.54 561.221 1033.91C562.669 1023.93 589.91 997.989 598.382 990.328L607.902 983.143C611.835 980.288 615.509 978.098 619.657 975.585C623.543 972.907 631.405 968.995 635.815 966.637C640.729 964.249 644.879 962.333 649.935 960.279C653.346 958.288 662.003 954.68 665.939 952.906C679.053 947.715 692.36 943.025 705.832 938.849C758.449 923.059 864.16 900.512 900.046 855.055C907.153 846.053 905.62 833.423 903.588 822.691Z"/><path fill="#2863A1" d="M585.727 1076.3C585.646 1088.97 585.425 1097.35 571.022 1101.71C562.954 1104.15 547.099 1098.88 546.682 1089.57C545.978 1073.84 552.138 1046.54 561.221 1033.91L561.262 1034.79C561.708 1046.78 556.32 1085.39 562.315 1093.74C567.155 1096.48 571.731 1096.39 575.351 1091.85C577.56 1084.35 574.897 1075.57 577.057 1070.02L578.392 1069.86C581.913 1074.36 578.423 1078.04 581.791 1078.62C583.759 1077.17 583.494 1077.12 585.727 1076.3Z"/><path fill="#2863A1" d="M635.815 966.637C640.161 978.008 647.085 969.649 654.592 972.71L654.734 974.797C651.863 976.886 623.892 976.509 619.657 975.585C623.543 972.907 631.405 968.995 635.815 966.637Z"/><path fill="#2863A1" d="M876.249 922.108C876.283 919.748 876.556 919.102 875.334 917.117C871.281 915.813 869.984 915.275 866.233 913.267C868.688 912.387 888.182 912.16 893.75 911.49L895.132 911.317C888.926 915.05 882.745 918.919 876.249 922.108Z"/><path fill="#2863A1" d="M665.939 952.906C669.596 958.326 679.769 956.776 687.478 958.827C686.667 959.642 653.85 960.332 649.935 960.279C653.346 958.288 662.003 954.68 665.939 952.906Z"/><path fill="#2863A1" d="M607.902 983.143C608.48 986.817 607.867 986.391 609.875 988.926C614.322 988.383 620.889 978.315 623.035 989.573C618.387 994.065 604.877 990.333 598.382 990.328L607.902 983.143Z"/><path fill="#2863A1" d="M782.911 944.171C787.231 944.072 794.359 943.733 798.156 945.462L797.795 947.284C793.03 948.034 787.645 949.624 783.631 947.491L782.911 944.171Z"/><path fill="#448893" d="M890.459 875.946C893.213 875.65 891.926 875.449 894.461 876.569C892.562 879.422 892.864 878.603 889.041 880.177C886.302 880.105 886.172 880.24 883.537 879.184C885.295 877.093 887.497 876.928 890.459 875.946Z"/><path fill="#448893" d="M1723.42 803.508C1759.57 801.835 1802.26 804.337 1839.28 803.307C1852.2 802.947 1904.21 802.53 1914.62 804.094C1914.3 818.428 1913.89 830.753 1914.89 845.072C1895.01 846.597 1863.45 845.616 1843.2 845.522C1842 883.476 1842.94 926 1842.93 964.25L1842.79 1025.14C1829.74 1026.36 1802.38 1025.46 1788.51 1025.38C1787.29 1009.57 1788.16 980.118 1788.11 963.395L1787.39 845.938C1778.77 845.953 1722.48 846.985 1718.97 844.774C1718.63 843.198 1718.35 841.609 1718.12 840.011C1717.14 832.993 1715.88 809.031 1719.65 803.948L1723.42 803.508Z"/><defs><linearGradient id="gradient_2" gradientUnits="userSpaceOnUse" x1="748.25092" y1="754.50232" x2="843.78949" y2="659.31964"><stop offset="0" stop-color="#3990B9"/><stop offset="1" stop-color="#3FA8C2"/></linearGradient></defs><path fill="url(#gradient_2)" d="M660.193 551.712C669.006 537.535 686.128 517.756 699.801 508.262C699.734 512.778 698.647 514.064 696.399 517.844C700.03 515.988 699.566 515.489 702.942 515.82C708.623 523.239 699.896 534.686 713.858 535.6C718.862 543.514 698.571 545.897 699.493 562.081C694.251 570.119 689.525 577.654 686.399 586.839C685.997 588.02 686.186 587.607 685.503 588.592C683.572 606.748 682.74 616.626 688.264 634.298C720.69 720.97 875.704 714.669 931.632 791.093C938.046 798.842 942.964 816.495 945.076 826.487C946.746 841.177 945.394 840.963 943.583 854.129C930.446 853.33 919.252 825.443 903.588 822.691C903.381 822.482 903.173 822.273 902.966 822.064C896.215 807.575 887.715 799.356 873.878 790.636C838.042 768.053 796.783 756.138 757.88 739.896C741.266 733.083 725.282 724.825 710.112 715.217C685.705 699.449 654.949 670.9 648.697 642.018C640.687 620.517 641.291 582.485 654.154 562.987C654.913 559.836 658.389 554.535 660.193 551.712Z"/><path fill="#448893" d="M654.154 562.987C654.494 579.316 659.762 629.555 653.419 639.951C651.284 641.175 651.168 641.319 648.697 642.018C640.687 620.517 641.291 582.485 654.154 562.987Z"/><path fill="#448893" d="M660.193 551.712C669.006 537.535 686.128 517.756 699.801 508.262C699.734 512.778 698.647 514.064 696.399 517.844C694.676 519.112 688.968 525.313 686.571 527.43C682.507 546.361 677.354 535.242 671.527 545.056L670.858 552.503L670.193 552.367L669.911 546.581C668.101 547.883 667.889 548.668 666.77 550.609C664.278 551.888 662.974 551.668 660.193 551.712Z"/><path fill="#448893" d="M688.264 634.298C672.561 631.781 671.698 592.567 685.503 588.592C683.572 606.748 682.74 616.626 688.264 634.298Z"/><path fill="#448893" d="M931.632 791.093C938.046 798.842 942.964 816.495 945.076 826.487C928.403 821.201 931.482 804.229 931.632 791.093Z"/><path fill="#448893" d="M816.944 732.31C822.419 731.948 825.801 730.62 828.693 735.844L826.011 735.887C821.451 735.977 818.68 736.934 816.944 732.31Z"/><path fill="#448893" d="M1119.43 750.644C1116.23 747.694 1113.85 746.002 1112.15 742.017C1113.15 736.308 1127 735.238 1131.14 736.626C1127.46 740.231 1127.17 738.31 1125.41 742.487L1126 745.204L1127.43 745.843L1131.02 743.649C1134.21 748.334 1129.35 750.748 1132.2 755.431C1137.26 755.279 1138.11 755.057 1141.63 759.298C1152.89 772.861 1150.25 769.441 1165.95 766.841L1168.92 766.155C1170.47 762.895 1168.99 757.128 1168.47 752.952C1200.44 788.538 1212.38 858.103 1198.74 903.015C1198.36 909.007 1195.34 916.498 1193.39 922.309C1182.23 955.571 1156.47 985.583 1130.3 1008.59C1117.31 1019.84 1103.62 1030.26 1089.31 1039.78C1084.88 1042.75 1072.46 1050.17 1069.08 1052.8C1041.53 1068.11 1010 1085.49 980.758 1097.94C972.638 1101.4 961.511 1100.61 954.769 1094.08C951.12 1089.46 948.649 1081.26 950.809 1075.7C954.733 1065.59 970.001 1060.47 979.188 1056.36C992.94 1051.32 1017.8 1037.5 1031.45 1029.99C1076.66 1005.13 1123.59 970.461 1148.34 923.995C1154.48 912.476 1158.25 897.892 1161.84 885.27C1170.2 853.942 1160.56 816.055 1144.44 788.782C1139.16 779.62 1126.89 766.314 1119.58 758.342L1119.43 750.644Z"/><path fill="#2863A1" d="M993.785 1088.81C1000.94 1079.83 1000.59 1083.88 1006.42 1078.88C1005.59 1076.77 1005.26 1075.66 1004.66 1073.53C1009.2 1067.38 1020.05 1073.29 1026.3 1070.77C1032.26 1068.36 1040.15 1062.87 1045.32 1059.08C1042.8 1058.49 1041.6 1058.48 1039.75 1056.67L1040.91 1055.02C1046.42 1053.36 1051.33 1059.91 1057.8 1054.27C1060.75 1051.7 1065.2 1052.45 1069.08 1052.8C1041.53 1068.11 1010 1085.49 980.758 1097.94C972.638 1101.4 961.511 1100.61 954.769 1094.08C951.12 1089.46 948.649 1081.26 950.809 1075.7C954.733 1065.59 970.001 1060.47 979.188 1056.36C977.83 1061.73 977.243 1062.26 973.386 1066.04C977.848 1068.72 978.196 1066.93 980.058 1070.44C975.927 1075.7 967.085 1072.1 961.229 1070.62C960.859 1077.31 959.961 1087.58 960.685 1093.94C968.17 1093.77 974.01 1094.7 978.763 1089.54C981.773 1086.28 989.005 1088.12 993.785 1088.81Z"/><path fill="#55B7AF" d="M1168.47 752.952C1200.44 788.538 1212.38 858.103 1198.74 903.015L1196.78 901.359C1194.6 889.522 1198.19 864.893 1197.85 851.929C1197.58 841.382 1196.8 832.929 1196.99 822.334C1193.96 816.256 1191.76 814.992 1187.42 809.867C1187.29 807.11 1187.5 805.108 1186.12 802.753L1184.8 803.192C1184.4 805.127 1184.17 806.739 1183.34 808.54C1182.19 803.199 1185.74 801.232 1185.59 795.401C1183.03 797.592 1184.31 797.383 1181.8 797.266C1178.98 793.169 1179.59 785.414 1178.38 779.115L1177.33 778.538C1169.92 774.409 1170.08 774.313 1165.95 766.841L1168.92 766.155C1170.47 762.895 1168.99 757.128 1168.47 752.952Z"/><path fill="#55B7AF" d="M1149.98 779.13L1151.5 779.988C1153.32 787.571 1155.7 798.686 1158.39 805.662C1160.87 802.139 1163.59 798.079 1166.16 794.683C1169.61 811.321 1169.31 828.692 1171.06 845.406C1172.75 861.508 1169.69 874.423 1167.24 890.108C1166.36 895.729 1167.3 905.011 1165.43 910.006C1161.75 904.133 1163.12 891.616 1161.84 885.27C1170.2 853.942 1160.56 816.055 1144.44 788.782C1148.59 788.423 1148.22 789.163 1150.44 786.901C1150.33 784.308 1150.18 781.718 1149.98 779.13Z"/><path fill="#60C5AA" d="M1119.43 750.644C1125.38 755.151 1129.97 758.549 1136.33 762.574C1137.38 765.688 1138.44 769.023 1139.6 772.078C1143.13 774.216 1147.05 776.311 1149.98 779.13C1150.18 781.718 1150.33 784.308 1150.44 786.901C1148.22 789.163 1148.59 788.423 1144.44 788.782C1139.16 779.62 1126.89 766.314 1119.58 758.342L1119.43 750.644Z"/><path fill="#43A7B6" d="M1185.98 907.379L1188.19 908.725C1191.09 913.502 1191.14 926.794 1187.75 930.516L1185.25 929.871C1180.96 925.58 1182.66 912.298 1185.98 907.379Z"/><path fill="#051E3D" d="M1522.93 526.301C1528.34 524.584 1567.98 525.067 1576.13 525.65C1576.2 541.518 1577.21 745.917 1574.42 749.622C1567.25 752.311 1530.69 752.332 1523.75 750.372C1522.64 741.032 1523.26 715.06 1523.19 704.48C1522.87 669.62 1522.77 634.759 1522.9 599.898C1522.96 584.411 1522.9 568.924 1522.71 553.438C1522.64 546.886 1522.08 532.305 1522.93 526.301Z"/><path fill="#03274B" d="M1523.75 750.372C1522.64 741.032 1523.26 715.06 1523.19 704.48C1522.87 669.62 1522.77 634.759 1522.9 599.898C1522.96 584.411 1522.9 568.924 1522.71 553.438C1522.64 546.886 1522.08 532.305 1522.93 526.301C1526.16 527.171 1528.49 527.328 1530.43 529.868C1535.92 557.63 1532.51 608.494 1532.36 638.502C1532.2 670.446 1535.84 717.122 1531.65 747.5L1530.03 748.72C1524.26 745.418 1528.08 730.966 1525 724.901L1524.32 725.505C1524.25 732.437 1524.47 743.806 1523.75 750.372Z"/><path fill="#03274B" d="M1550.39 531.523C1555.35 531.56 1562.45 531.096 1566.54 533.525C1569.29 542.012 1567.87 567.52 1568.11 578.237C1569.37 634.839 1566.55 691.914 1568.61 748.469L1555.75 748.712L1536.55 748.923C1536.48 747.439 1536.44 745.953 1536.42 744.467C1536.06 700.195 1535.94 655.921 1536.05 611.647C1536.04 601.964 1534.38 537.486 1538.73 533.017C1542.45 531.015 1546.04 531.513 1550.39 531.523Z"/><path fill="#43A7B6" d="M968.206 757.039C967.424 752.885 966.753 751.241 967.966 747.187C975.946 736.325 996.664 748.778 1004.4 754.696C1027.82 772.618 1048.43 796.979 1052.5 827.138C1054.66 842.288 1052.32 859.639 1045.53 873.191C1039.19 888.619 1027.78 903.741 1014.67 917.816C1007.81 925.188 949.499 979.568 945.027 944.759C943.715 934.548 969.196 925.278 978.711 917.687C1026.61 879.423 1051.32 821.631 994.539 777.749C987.832 772.566 972.644 763.646 968.206 757.039Z"/><path fill="#55B7AF" d="M968.206 757.039C967.424 752.885 966.753 751.241 967.966 747.187C975.946 736.325 996.664 748.778 1004.4 754.696C1027.82 772.618 1048.43 796.979 1052.5 827.138C1054.66 842.288 1052.32 859.639 1045.53 873.191C1045.17 872.962 1042.58 871.14 1042.58 870.933C1043.18 853.218 1043.37 835.439 1041.21 817.813C1040.42 811.403 1039.29 805.119 1037.99 798.806C1035.29 796.607 1030.25 793.067 1028.73 790.039C1021.55 775.756 993.141 747.506 976.205 747.695C970.623 751.336 975.1 755.091 968.206 757.039Z"/><path fill="#051E3D" fill-opacity="0.98823529" d="M2046.39 721.036C2012.31 719.555 1975.74 721.329 1941.45 720.035C1935.06 719.793 1929.42 720.312 1922.94 719.487C1919.88 716.371 1920.25 717.684 1920.07 714.175C1921.6 712.059 1922.74 710.931 1923.08 708.348L1920.64 705.739C1918.87 695.515 1919.41 668.604 1922.02 658.553C1924.72 656.386 1923.81 657.058 1927.95 656.81C1926.33 663.309 1926.29 698.794 1926.17 708.189C1964.71 708.211 2012.96 706.814 2050.65 708.371C2050.79 716.792 2052.95 746.977 2047.9 751.623C2046.85 740.893 2048.85 733.289 2046.39 721.036Z"/><path fill="white" fill-opacity="0.011764706" d="M2045.95 524.546L2048.8 525.062C2050.52 529.002 2049.58 559.881 2049.34 565.871C2047.38 567.474 2046.64 567.263 2044.11 567.345C2046.07 561.71 2045 534.023 2045.95 524.546Z"/></svg>