<?xml version="1.0" encoding="utf-8" ?><svg xmlns="http://www.w3.org/2000/svg" xmlns:xlink="http://www.w3.org/1999/xlink" width="2816" height="1536" viewBox="0 0 2816 1536"><path fill="#042E57" d="M2090.52 525.412C2108.43 524.345 2128.48 525.033 2146.56 524.964C2189.78 524.799 2239.43 519.303 2270.45 556.197C2274.63 560.751 2277.77 567.189 2280.9 572.62C2288.29 594.892 2289.92 619.828 2279.18 641.425C2270.43 659.019 2256.89 667.629 2240.38 676.885C2246.85 685.031 2252.55 693.605 2258.85 701.608C2259.78 702.991 2263.1 707.699 2263.57 708.923C2272.53 720.155 2283.3 740.653 2292.72 750.08L2234.6 749.905C2231.95 744.424 2224.35 733.459 2220.62 727.737C2211.44 713.553 2202.12 699.453 2192.68 685.44C2176.91 684.051 2160.5 685.768 2144.94 684.346C2143.16 685.629 2142.46 685.488 2142.4 687.602C2142.12 698.261 2140.85 742.786 2142.88 750.636C2132.11 749.439 2102.92 750.133 2090.7 749.929L2090.52 525.412ZM2141.78 643.24C2163.31 644.02 2206.7 648.781 2222.49 634.13C2223.36 633.311 2224.22 632.466 2225.05 631.596C2248.81 605.525 2231.72 568.437 2196.64 567.377C2178.24 566.821 2160.56 567.051 2142.15 567.3C2140.93 590.417 2141.65 619.661 2141.78 643.24Z"/><path fill="#03234A" d="M2270.45 556.197C2274.63 560.751 2277.77 567.189 2280.9 572.62C2274.53 574.75 2276.41 583.364 2273.9 589.713L2270.45 556.197Z"/><path fill="#03234A" d="M2258.85 701.608C2259.78 702.991 2263.1 707.699 2263.57 708.923C2258.23 711.676 2262.79 713.959 2257.09 720.404L2255.81 718.211C2255.45 709.06 2256.22 709.781 2258.85 701.608Z"/><path fill="#042E57" d="M1287.12 525.216L1352.77 525.005C1389.88 524.902 1431.4 521.986 1460.02 550.334C1475.44 565.61 1481.61 586.487 1481.39 607.838C1481.37 627.632 1473.34 646.575 1459.11 660.339C1456.4 662.922 1437.73 676.942 1437.29 677.789C1440.72 685.129 1481.22 743.405 1487.11 749.813L1431.41 750.054C1418.36 731.465 1406.1 712.485 1393.5 693.598C1391.53 690.632 1389.29 687.638 1387.5 684.572C1370.76 684.501 1353.33 684.182 1336.65 684.696C1336.72 701.886 1335.87 732.643 1337.2 748.748C1333.88 750.6 1293.41 750.434 1287.54 749.346L1287.8 747.468C1286.72 735.761 1287.34 705.221 1287.32 692.222L1287.48 578.726C1287.54 565.585 1288.56 536.714 1287.12 525.216ZM1417.8 633.753C1426.17 626.039 1429.59 620.46 1430.29 608.9C1433.47 556.842 1372.61 566.513 1337.96 566.802C1337.7 592.746 1337.65 618.692 1337.8 644.638C1362.87 644.872 1398.97 649.316 1417.8 633.753Z"/><path fill="#03234A" d="M1326.75 747.64L1326.93 746.313C1327.97 737.992 1327.93 723.16 1328.33 714.051C1328.73 704.805 1325.65 699.291 1328.3 687.349L1330.37 687.817L1328.21 687.864L1330.47 688.714C1331.35 701.413 1327.59 736.906 1332.7 747.19C1334.23 747.747 1335.64 748.266 1337.2 748.748C1333.88 750.6 1293.41 750.434 1287.54 749.346L1287.8 747.468C1292.03 747.537 1325.65 748.161 1326.75 747.64Z"/><path fill="#042E57" d="M1872.95 525.897C1876.68 524.289 2026.8 525.055 2042.31 525.521C2044.9 529.479 2043.88 559.472 2043.84 566.602L1924.37 566.669L1923.93 614.163L1926.68 616.155C1931.74 614.997 1956.98 615.344 1963.34 615.424C1985.62 615.701 2008.56 615.129 2030.77 615.557C2031.11 629.203 2031.2 642.855 2031.04 656.505L1961.02 656.666C1950.53 656.662 1934.81 657.113 1924.69 656.463C1922.93 671.125 1925.06 692.456 1924.07 708.013C1931.6 710.642 2033.33 709.241 2049.23 709.238C2049.23 722.856 2048.91 736.67 2050.17 750.214L1872.74 749.925L1872.29 599.532C1872.26 582.111 1871.08 541.467 1872.95 525.897Z"/><path fill="#03234A" d="M1872.95 525.897L1873.06 527.024C1873.82 534.955 1873.5 543.696 1873.49 551.715C1873.48 609.024 1875.15 666.266 1874.47 723.597C1874.39 730.779 1874.34 739.752 1876.19 746.665C1878.46 748.164 2029.19 748.051 2046.48 747.59C2046.99 738.862 2048.83 725.608 2043.88 718.535C2031.35 709.137 2002.74 721.302 1991.51 712.129C1987.78 711.949 1984.65 715.369 1981.62 715.697C1972.53 716.684 1932.51 715.129 1925.43 712.568C1928.64 710.471 1928.7 711.255 1933.17 711.652C1929.16 711.499 1926.39 712.207 1923.98 710.059L1924.07 708.013C1931.6 710.642 2033.33 709.241 2049.23 709.238C2049.23 722.856 2048.91 736.67 2050.17 750.214L1872.74 749.925L1872.29 599.532C1872.26 582.111 1871.08 541.467 1872.95 525.897Z"/><path fill="#03234A" d="M2042.31 525.521C2044.9 529.479 2043.88 559.472 2043.84 566.602L1924.37 566.669L1923.93 614.163L1922.52 613.219C1920.61 610.334 1921.46 569.339 1922.28 563.408C1927.5 558.968 2015.93 562.793 2032.13 562.649C2031.93 555.771 2030.52 533.311 2033.58 528.038C2037.64 539.8 2031.75 554.13 2036.14 562.05C2039.2 563.981 2037.66 563.741 2040.75 563.479C2041.95 561.217 2042.14 531.555 2042.04 527.019L2042.31 525.521Z"/><path fill="#03234A" d="M1926.68 616.155C1931.74 614.997 1956.98 615.344 1963.34 615.424C1985.62 615.701 2008.56 615.129 2030.77 615.557C2031.11 629.203 2031.2 642.855 2031.04 656.505L1961.02 656.666C1950.53 656.662 1934.81 657.113 1924.69 656.463C1929.29 653.205 1954.1 654.389 1960.93 654.395L2027.5 654.51C2027.68 646.299 2029.1 627.516 2025.46 621.417C2011.92 616.192 1943.65 623.822 1938.61 619.11C1944.76 619.074 1951.67 619.193 1957.74 618.718C1953.05 617.093 1932.36 621.154 1926.68 616.155Z"/><path fill="#13A1C9" d="M1054.03 583.489C1072.43 561.703 1101.47 534.44 1121.79 514.129C1135.86 500.07 1159.92 474.792 1174.45 462.631L1173.97 503.239C1166.83 511.962 1154.59 523.088 1146.2 531.232C1133.83 543.382 1121.52 555.598 1109.28 567.877C1100.84 577.599 1089.33 588.7 1080.24 598.123L999.622 680.264C992.467 687.673 979.649 699.582 973.483 706.874C963.477 692.468 931.417 661.666 917.799 647.414C910.369 652.599 889.905 673.539 881.998 681.293C861.304 701.394 841.019 721.914 821.157 742.838C812.142 752.158 798.144 765.856 790.157 775.416C773.448 769.901 757.045 763.1 740.404 757.619C675.873 736.367 594.277 732.635 532.099 764.436C529.269 765.903 526.475 767.437 523.718 769.038C524.712 756.03 524.139 745.608 524.496 733.02C594.444 705.293 653.224 702.081 726.575 720.698C739.977 724.099 773.93 736.768 783.707 737.822C797.646 727.9 815.062 707.066 827.652 694.242C856.992 664.186 886.766 634.556 916.964 605.363C936.223 624.509 954.153 643.266 974.32 661.579C992.473 647.29 1016.15 619.423 1034.09 603.431C1039.16 598.915 1049.22 586.882 1054.03 583.489Z"/><path fill="#76D0AD" d="M1054.03 583.489C1072.43 561.703 1101.47 534.44 1121.79 514.129C1135.86 500.07 1159.92 474.792 1174.45 462.631L1173.97 503.239C1166.83 511.962 1154.59 523.088 1146.2 531.232C1133.83 543.382 1121.52 555.598 1109.28 567.877L1108.04 565.799C1109.91 559.869 1119.14 558.113 1110.62 551.581C1107.25 552.044 1108.24 552.033 1105.3 555.412C1101.98 552.175 1100.71 550.523 1098 546.93C1087.26 549.735 1075.15 573.589 1064.8 576.931L1064.59 577.718L1066.69 578.618C1065.24 581.013 1061.29 582.294 1058.54 583.535C1059.19 584.879 1059.39 585.16 1060.26 586.374L1059.4 587.81C1055.95 588.646 1056.94 588.972 1054.62 587.578L1054.03 583.489Z"/><path fill="#042E57" d="M1794.71 525.43C1809.45 524.343 1832.47 525.104 1847.72 525.147C1833.99 551.19 1826.55 574.375 1814.53 599.089C1813.49 601.822 1812.43 604.221 1811.24 606.894L1792.3 651.259C1790.49 655.47 1784.11 670.792 1781.85 674.092C1781.07 678.49 1777.7 685.36 1775.6 689.464C1773.83 696.73 1755.37 741.61 1751.49 748.036L1751.04 749.946C1745.47 750.852 1701.49 751.025 1697.58 748.31C1695.93 738.633 1661.43 662.471 1655.92 650.01C1638.76 611.17 1621.54 562.676 1603.11 525.401C1619.67 524.711 1640.09 525.26 1656.93 525.308C1664.62 545.049 1674.28 564.498 1682.49 584.21L1715.34 662.358C1718.16 669.024 1720.86 680.399 1724.88 685.647L1726.01 685.381C1733.97 671.549 1751.49 629.666 1757.59 614.033C1768.54 586.014 1784.69 552.776 1794.71 525.43Z"/><path fill="#03234A" d="M1697.58 748.31C1709.03 746.51 1729.81 748.666 1743.39 747.557C1746.09 742.818 1742.22 737.027 1745.64 732.3L1747.91 732.513C1750.44 736.871 1747.43 740.924 1749.32 747.258L1751.49 748.036L1751.04 749.946C1745.47 750.852 1701.49 751.025 1697.58 748.31Z"/><path fill="#03234A" d="M1775.6 689.464C1775.45 686.306 1776.35 657.683 1776.95 656.313L1778.33 656.462C1780.95 662.78 1778.45 668.951 1781.85 674.092C1781.07 678.49 1777.7 685.36 1775.6 689.464Z"/><path fill="#03234A" d="M1811.24 606.894C1809.93 601.409 1805.52 583.426 1809.48 578.986L1811.31 580.409C1814.22 588.582 1807.47 590.545 1814.53 599.089C1813.49 601.822 1812.43 604.221 1811.24 606.894Z"/><path fill="#03234A" d="M1712.61 668.9C1716.66 673.331 1717.34 685.272 1717 691.205L1713.63 690.65C1710.16 686.459 1712.11 674.602 1712.61 668.9Z"/><path fill="#13A1C9" d="M985.514 738.627C989.735 733.694 1000.78 718.551 1005.76 717.373C1010.25 720.743 1016.22 738.127 1018.21 743.717C1034.58 789.616 1010.46 856.548 964.11 876.747C960.414 879.292 953.221 882.134 948.982 883.737C919.442 894.915 889.761 889.68 861.712 876.765C843.925 870.547 825.81 861.257 808.281 853.805C720.842 816.633 638.678 786.776 547.042 830.946C539.005 834.841 531.156 839.112 523.52 843.745L524.256 807.761C634.968 744.95 729.833 784.899 835.98 830.984C872.341 846.77 912.181 870.272 950.897 847.45C995.877 820.936 996.491 784.788 985.514 738.627Z"/><path fill="#1294BE" d="M861.712 876.765C871.514 875.727 885.189 881.779 895.449 881.836C907.356 881.902 919.006 875.296 930.666 879.119C943.531 883.337 950.37 876.1 964.11 876.747C960.414 879.292 953.221 882.134 948.982 883.737C919.442 894.915 889.761 889.68 861.712 876.765Z"/><path fill="#02C5D9" d="M882.194 441.451C966.861 438.796 1023 456.614 1094.73 500.495C1087.84 508.377 1076.07 518.156 1067.89 524.799C1021.02 497.941 986.754 480.305 930.764 475.774C854.998 469.643 778.123 493.37 720.321 543.274C675.468 580.336 647.325 625.147 628.825 680.121C617.672 680.447 606.526 681.002 595.396 681.785C596.316 675.002 599.565 666.428 601.915 659.813C612.773 628.711 628.153 599.378 647.559 572.758C663.558 550.37 677.59 538.233 697.578 520.254C740.315 481.811 787.237 460.467 843.007 447.959C855.854 445.077 869.079 443.633 882.194 441.451Z"/><path fill="#256E87" d="M1876.18 790.044L1914.53 790.326C1914.7 847.116 1913.75 912.5 1915.74 969.027C1915 969.765 1914.77 970.179 1913.89 970.591L1882.87 970.509C1878.68 965.87 1871.5 956.44 1868.26 951.17L1866.52 949.051C1847.24 926.69 1828.76 901.658 1809.84 878.784C1803.83 871.232 1799.42 865.979 1792.72 858.91L1792.25 942.62L1791.82 970.823C1780.65 970.833 1766.95 971.227 1755.99 970.759L1754.3 969.344C1753 953.598 1753.22 794.03 1755.29 790.487L1786.38 790.495C1795.28 798.911 1813.35 823.76 1821.5 834.564C1832.32 848.845 1843.58 862.78 1855.28 876.348C1859.97 881.861 1868.47 892.42 1873.98 896.227L1875.91 895.861C1877.19 893.164 1876.99 891.687 1877.13 888.628C1876.21 881.973 1876.56 863.06 1876.52 855.553L1876.18 790.044Z"/><path fill="#1A647D" d="M1876.18 790.044L1914.53 790.326C1914.7 847.116 1913.75 912.5 1915.74 969.027C1915 969.765 1914.77 970.179 1913.89 970.591L1913.09 967.338C1912.45 963.92 1913.12 964.492 1911.01 962.88C1908.28 963.6 1906.85 963.952 1904.03 963.855L1904.16 857.75C1904.22 844.264 1905.21 804.991 1903.12 793.482C1900.63 792.036 1889.46 791.218 1887.54 793.745C1890.38 794.632 1889.63 793.773 1890.69 795.696C1886.38 805.371 1888.62 856.028 1887.25 872.013L1886.96 870.074C1885.79 878.462 1886.76 887.529 1885.62 894.411C1884.5 891.441 1884.86 803.233 1885.29 793.111C1882.57 791.517 1882.9 792.063 1879.26 792C1876.33 796.194 1881.04 883.556 1877.13 888.628C1876.21 881.973 1876.56 863.06 1876.52 855.553L1876.18 790.044Z"/><path fill="#28738B" d="M1906.06 791.961C1908.18 792.129 1910.31 792.468 1912.42 792.764C1913.39 802.38 1912.86 820.366 1912.85 830.461L1912.89 898.084L1912.89 938.648C1912.92 944.165 1914.66 959.332 1910.66 962.398C1909.56 961.859 1906.8 960.568 1906.63 959.109C1905.64 950.207 1907.08 941.34 1907.1 932.444L1906.92 838.464C1906.93 830.065 1907.8 798.278 1906.06 791.961Z"/><path fill="#1A647D" d="M1755.99 970.759L1754.3 969.344C1753 953.598 1753.22 794.03 1755.29 790.487C1757.63 797.265 1755.9 834.105 1757.25 846.488L1757.47 845.974C1759.95 868.908 1758.94 885.582 1758.48 908.609C1758.21 922.297 1760.51 949.869 1758.37 962.38C1755.73 965.648 1756.55 964.531 1756.3 969.619L1755.99 970.759Z"/><path fill="#28738B" d="M1758.37 962.38C1765.88 962.705 1782.79 962.611 1788.46 966.168C1785.51 970.893 1762.04 969.69 1756.3 969.619C1756.55 964.531 1755.73 965.648 1758.37 962.38Z"/><path fill="#1A647D" d="M1866.52 949.051C1869.01 945.03 1867.79 945.773 1871.53 943.877L1873.92 944.359L1875.17 946.585C1874.21 949.945 1875.17 948.772 1872.54 950.494C1869.21 950.299 1870.44 949.754 1868.26 951.17L1866.52 949.051Z"/><path fill="#1A647D" d="M1792.99 804.283C1796.56 805.616 1795.42 809.666 1796.44 813.782L1796.62 814.487L1794.09 814.528C1792.28 811.722 1792.9 807.865 1792.99 804.283Z"/><path fill="#256E87" d="M2021.17 789.475C2033.86 789.822 2046.56 790.022 2059.26 790.076C2074.92 822.432 2089.63 858.665 2104.66 891.236L2131.8 950.224C2135.02 957.177 2138.38 962.503 2141.25 969.801C2136.65 972.641 2105.79 972.532 2100.7 970.215L2100.03 969.997C2097.21 967.319 2086.58 939.765 2083.87 933.571C2066.73 932.492 2016.59 932.475 1998.12 933.923C1991.27 934.461 1986.23 964.212 1978.39 970.837C1973.91 972.122 1945.74 971.911 1941.1 970.273C1941.47 968.26 1943.02 965.798 1944.03 963.918C1960.02 933.526 1977.14 886.414 1991.13 854.238C1991.68 851.996 1996.7 842.555 1998.21 838.808C2006.58 823.667 2012.85 805.096 2021.17 789.475ZM2008.24 901.451C2019.74 901.701 2031.25 901.801 2042.75 901.752L2071.32 901.591C2061.4 879.247 2051.42 856.797 2042.13 834.16C2041.52 832.682 2039.94 831.458 2038.67 830.538C2033.6 837.447 2026.55 863.807 2022.26 873.397C2017.85 883.248 2013.25 891.872 2008.24 901.451Z"/><path fill="#28738B" d="M1944.03 963.918C1951.17 962.576 1968.19 962.436 1974.32 965.976L1974.16 967.459C1967.54 972.24 1952.22 968.307 1941.1 970.273C1941.47 968.26 1943.02 965.798 1944.03 963.918Z"/><path fill="#1A647D" d="M1998.21 838.808C1998.59 845.872 2002.56 863.861 1997.89 868.088L1998.76 867.255L1996.47 868.492L1995.77 867.039C1997.28 863.099 1997.87 857.87 1994.79 854.417C1992.81 854.142 1993.11 854.089 1991.13 854.238C1991.68 851.996 1996.7 842.555 1998.21 838.808Z"/><path fill="#105CBA" d="M522.68 888.116C573.618 850.791 617.14 838.005 681.213 847.712C725.19 854.374 776.613 877.667 817.568 894.969C843.344 905.859 871.653 918.97 899.444 923.832C904.628 924.739 924.194 923.998 930.828 923.96C938.828 922.217 946.862 920.636 954.925 919.218C970.861 914.545 981.316 908.628 995.18 900.008C1001 905.225 1012.13 916.633 1017.07 922.54C1004.39 932.624 990.207 940.661 975.042 946.361C893.553 976.389 837.198 936.628 763.611 907.671C753.722 903.78 742.952 900.046 733.357 895.652C723.485 892.728 712.562 888.861 702.688 885.616C693.325 883.814 680.96 880.694 672.002 879.509C631.228 874.114 590.743 879.933 556.127 903.298C544.664 911.035 533.596 920.009 522.906 928.716C522.793 915.434 522.432 901.334 522.68 888.116Z"/><path fill="#0950AF" d="M930.828 923.96C938.828 922.217 946.862 920.636 954.925 919.218C960.471 923.988 963.177 920.917 966.324 922.902L964.098 923.404L964.582 923.402L959.185 925.091L959.892 925.94C955.331 926.247 936.561 924.61 930.828 923.96Z"/><path fill="#256E87" d="M1630.08 788.36C1661.88 783.722 1690.49 794.856 1712.51 817.53C1704.63 825.515 1696.45 833.209 1688.01 840.596C1655.69 806.886 1594.93 817.87 1582.82 865.018C1578.68 880.657 1581.05 897.307 1589.4 911.163C1607.59 940.774 1646.46 949.582 1675.66 931.091C1676.11 922.082 1674.21 882.272 1677.22 877.909C1688.44 877.333 1699.83 877.524 1711.07 877.586C1710.51 901.385 1710.92 926.239 1710.77 950.186C1697.84 961.813 1677.84 969.206 1660.58 972.17C1609.09 981.02 1554.09 953.092 1545.43 898.529C1535.99 839.097 1571.17 796.286 1630.08 788.36Z"/><path fill="#13A1C9" d="M1155.4 563.406C1168.21 570.078 1195.64 620.759 1201.79 635.891C1234.46 716.198 1237.81 813.408 1205.03 893.961C1192.68 923.594 1176.04 951.252 1155.65 976.05C1151.19 981.486 1147.97 988.332 1141.44 991.094C1138.15 990.605 1139.12 990.687 1136.2 988.006C1130.38 981.67 1125.08 975.98 1119.76 969.201C1156.9 924.56 1175.63 892.807 1190.09 835.375C1207.12 767.735 1196.4 700.423 1165.82 638.236C1156.8 619.897 1145.12 603.455 1134.43 585.95C1141.28 578.162 1147.79 570.467 1155.4 563.406Z"/><path fill="#256E87" d="M1299.9 922.315C1321.38 935.47 1343.59 946.312 1369.65 942.14C1375.7 941.171 1391.13 935.986 1393.69 930.114C1398.47 919.171 1393.05 909.311 1382.28 904.411C1353.39 891.264 1306.67 892.995 1292.86 858.583C1288.14 845.973 1289.83 832.386 1295.79 820.29C1302.34 807.102 1313.87 797.069 1327.84 792.417C1353.65 783.603 1394.14 787.35 1418.32 799.535C1421.1 800.966 1423.85 802.449 1426.58 803.985C1424.24 808.839 1417.62 821.853 1416.09 826.129C1414.63 829.108 1414.56 830.426 1412.07 832.171C1402.95 826.541 1396.86 824.906 1386.75 821.606C1376.61 819.198 1367.94 818.044 1357.51 818.899C1338.42 820.463 1318.47 831.118 1331.85 853.075C1365.01 867.804 1415.43 867.03 1428.71 900.586C1433.56 913.062 1433.22 926.957 1427.78 939.184C1408.62 982.942 1341.08 978.856 1304.82 962.108C1279.18 950.262 1294.82 942.858 1299.9 922.315Z"/><path fill="#28738B" d="M1386.75 821.606C1396.12 819.034 1404.48 819.867 1412.08 826.059C1413.32 826.097 1414.89 826.199 1416.09 826.129C1414.63 829.108 1414.56 830.426 1412.07 832.171C1402.95 826.541 1396.86 824.906 1386.75 821.606Z"/><path fill="#13A1C9" d="M722.865 994.895C760.201 1024.75 811.49 1046.89 858.384 1056.43C939.893 1073.03 1011.38 1050.82 1079.02 1004.51C1082.46 1001.7 1086.05 998.692 1089.55 995.991C1097.2 1002.76 1105.42 1011.94 1112.35 1019.63C1108.27 1022.64 1102.39 1027.27 1098.26 1029.9C1092.7 1036.18 1076.97 1044.56 1069.71 1049.13C959.313 1118.55 798.77 1104.6 700.485 1018.34C706.686 1011.31 715.959 1000.81 722.865 994.895Z"/><path fill="#76D0AD" d="M896.282 515.559C930.894 509.211 1012.54 531.995 1039.83 554.432C1031.58 561.506 1024.37 568.322 1016.51 575.837C960.611 546.463 904.886 538.517 843.338 555.587C810.118 564.8 785.273 581.999 758.631 603.139C732.895 626.851 715.027 653.012 700.628 684.638C690.27 682.991 679.867 681.638 669.432 680.58C705.884 584.776 793.538 519.86 896.282 515.559Z"/><path fill="#042E57" d="M1525.53 525.417C1542.09 525.252 1558.66 525.306 1575.22 525.579L1575.47 682.662L1575.38 725.972C1575.36 731.37 1575.64 743.534 1574.9 748.471L1572.76 749.616L1525.52 749.675C1525.67 733.675 1524.75 716.553 1524.62 700.37L1523.93 573.601C1523.88 565.526 1522.5 530.489 1525.53 525.417Z"/><path fill="#13A1C9" d="M1105.76 615.398C1113.64 618.431 1133.31 657.736 1137.71 666.75C1174.82 742.75 1166.03 842.482 1119.04 912.341C1111.85 923.042 1103.99 934.157 1094.14 942.557C1091.01 942.412 1090.48 940.74 1087.72 937.903C1082.82 932.536 1077.87 926.902 1072.57 921.962C1078.91 911.935 1087.36 901.79 1094.12 891.778C1147.67 812.508 1139.21 712.307 1083.79 636.523C1090.22 629.661 1098.78 621.962 1105.76 615.398Z"/><path fill="#105CBA" d="M771.295 946.152C774.559 947.416 783.697 952.838 787.137 954.781C802.131 963.247 816.233 971.231 832.331 977.445C885.118 997.966 943.831 997.07 995.967 974.948C1009.35 969.133 1037.39 949.978 1043.41 948.299C1048.62 950.593 1061.41 965.742 1065.75 970.576C1059.37 975.439 1054.16 979.05 1047.52 983.441C951.143 1045.58 839.967 1035.17 749.243 968.016C757.49 958.853 762.166 954.003 771.295 946.152Z"/><path fill="#256E87" d="M2164.77 789.45C2177.6 789.328 2190.43 789.457 2203.25 789.835L2203.9 938.477C2231.07 939.929 2266.06 938.933 2293.84 939.021C2293.85 946.135 2293.58 957.235 2294.01 964.084C2293.93 967.985 2294.39 969.208 2292.23 971.521C2281.31 972.632 2259.25 972.023 2247.49 972.004L2164.91 971.834C2164.71 961.446 2164.8 951.054 2165.15 940.67C2164.01 891.218 2164.77 839.016 2164.77 789.45Z"/><path fill="#1A647D" d="M2172.99 792.903L2176.28 795.263C2176.59 798.534 2176.09 813.516 2176.09 817.95C2176.11 837.593 2175.99 857.236 2175.7 876.877C2175.58 891.183 2177.49 950.262 2174.7 959.895C2171.94 935.663 2173.5 904.69 2173.55 879.874C2173.61 853.34 2170.97 818.959 2172.99 792.903Z"/><path fill="#105CBA" d="M1056.5 665.939C1063.61 675.156 1068.24 683.5 1073.68 693.626C1074.9 696.123 1077.91 701.547 1077.94 703.977C1082.39 710.867 1087.55 731.146 1089.27 739.676C1097.33 778.802 1092.13 819.499 1074.49 855.341C1066.32 871.565 1057.53 883.947 1047.6 898.901C1042.35 890.279 1032.65 881.369 1024.99 874.84C1065.97 831.793 1074.92 759.254 1045.51 708.119C1042.36 702.648 1035.04 691.167 1034.31 685.62C1037.48 680.515 1051.16 670.245 1056.5 665.939Z"/><path fill="#0950AF" d="M1073.68 693.626C1074.9 696.123 1077.91 701.547 1077.94 703.977C1073.43 709.688 1078.12 715.068 1073.78 720.376C1071.99 712.061 1073.19 702.15 1073.68 693.626Z"/><path fill="#0950AF" d="M1072.26 831.344C1074.1 831.909 1073.57 831.782 1075.18 833.028C1077.15 838.324 1075.81 841.994 1074.27 847.263L1073.74 847.493C1071.42 844.243 1072.11 835.48 1072.26 831.344Z"/><path fill="#256E87" d="M1468.11 790.539L1505.3 790.601C1505.49 811.608 1507.53 967.086 1504.45 971.952C1496.47 971.894 1476.49 972.497 1469.82 971.488C1468.01 968.481 1468.6 967.355 1468.52 963.491L1468.74 848.626C1468.68 831.199 1469.22 807.598 1468.11 790.539Z"/><path fill="#28738B" d="M1468.52 963.491C1474.54 963.431 1500.16 961.974 1503.32 964.452C1503.65 966.719 1503.99 969.768 1504.45 971.952C1496.47 971.894 1476.49 972.497 1469.82 971.488C1468.01 968.481 1468.6 967.355 1468.52 963.491Z"/><path fill="#13A1C9" d="M912.733 735.938C935.884 735.768 954.8 754.376 955.01 777.527C955.22 800.677 936.645 819.625 913.495 819.875C890.288 820.126 871.284 801.495 871.073 778.288C870.863 755.082 889.526 736.109 912.733 735.938Z"/><path fill="#76D0AD" d="M891.876 584.393L892.264 584.652C892.162 587.181 885.088 593.132 882.961 595.579C864.642 616.655 858.797 623.888 833.392 633.913C806.328 644.593 782.612 678.09 765.985 701.708C759.796 699.797 753.073 697.339 746.89 695.228C743.483 694.489 741.924 694.583 739.817 692.095C739.244 686.173 753.719 664.128 757.913 658.909C795.155 612.579 834.504 592.201 891.876 584.393Z"/><path fill="#F2F8F8" fill-opacity="0.011764706" d="M1287.54 749.346C1286.39 748.922 1286.34 748.748 1285.32 748.033C1282.46 739.389 1281.68 534.503 1284.35 526.382L1287.12 525.216C1288.56 536.714 1287.54 565.585 1287.48 578.726L1287.32 692.222C1287.34 705.221 1286.72 735.761 1287.8 747.468L1287.54 749.346Z"/><path fill="#F2F8F8" fill-opacity="0.011764706" d="M1792.72 858.91C1799.42 865.979 1803.83 871.232 1809.84 878.784L1808.56 878.657C1803.32 878.111 1802.32 877.84 1797.52 875.672C1794.67 893.517 1799.91 922.178 1792.25 942.62L1792.72 858.91Z"/><path fill="#F2F8F8" fill-opacity="0.011764706" d="M2142.88 750.636C2140.85 742.786 2142.12 698.261 2142.4 687.602C2142.46 685.488 2143.16 685.629 2144.94 684.346C2147.22 690.074 2146.78 741.666 2145.82 748.913C2144.07 750.647 2145.07 750.178 2142.88 750.636Z"/></svg>