<?xml version="1.0" encoding="utf-8" ?>
<svg xmlns="http://www.w3.org/2000/svg" viewBox="490 440 660 660">
<path fill="#89BF61" transform="scale(2 2)" d="M570.775 235.565C571.323 238.576 571.336 251.612 571.41 255.377C548.594 279.681 523.048 303.008 500.005 327.25C491.291 336.416 481.036 347.089 471.718 355.42C464.123 348.729 450.813 333.701 443.675 326.075C423.761 344.661 399.737 369.911 380.411 389.812C332.564 372.948 300.397 363.521 250.857 384.848C249.75 385.439 249.824 385.498 248.592 385.403C247.499 382.233 247.972 372.908 248.02 369.072C293.051 350.213 332.745 356.27 377.061 371.935C399.233 350.103 420.83 327.148 443.152 305.427C452.29 313.719 463.245 325.234 472.198 334.107C504.187 302.242 538.351 266.042 570.775 235.565Z"/><path fill="#139DC9" transform="scale(2 2)" d="M487.002 360.762C490.477 362.619 493.364 371.985 494.457 375.982C497.166 385.886 497.398 396.265 494.499 406.157C490.351 420.429 480.692 432.462 467.657 439.598C441.193 453.857 415.726 439.951 391.028 429.163C342.074 407.781 301.881 393.925 251.943 421.101C250.478 422.113 250.233 422.245 248.534 422.77C246.429 420.777 247.487 409.1 247.504 405.69C295.567 376.801 347.228 391.837 394.256 413.095C402.871 416.989 426.422 427.45 434.527 429.043C441.39 430.372 448.481 429.898 455.107 427.668C464.925 424.205 472.945 416.946 477.367 407.519C483.089 395.323 481.143 383.647 476.702 371.583C480.15 368.053 483.595 364.346 487.002 360.762Z"/><path fill="#4CC8C7" transform="scale(2 2)" d="M430.402 224.779C436.388 224.164 446.988 224.597 452.98 225.152C483.84 228.014 506.05 237.11 531.344 254.407C527.344 257.841 523.008 262.278 519.188 266.011C496.099 251.74 476.209 243.141 448.604 241.445C409.46 239.04 371.972 251.11 342.508 277.19C323.049 292.772 308.027 319.1 300.529 342.645C294.812 343.09 289.259 343.304 283.529 343.524C288.877 321.704 301.882 297.393 316.76 280.605C347.875 245.497 384.152 228.067 430.402 224.779Z"/><path fill="#89BF61" transform="scale(2 2)" d="M299.152 455.166L312.035 455.07C315.033 460.56 319.595 467.464 323.331 472.405C346.874 503.735 382.057 524.241 420.916 529.28C462.312 534.873 496.955 523.074 529.719 498.193C533.107 501.018 538.2 506.63 541.414 509.987L534.525 515.138C518.85 526.602 503.367 534.835 484.566 540.272C442.962 552.416 398.225 547.338 360.4 526.178C332.473 510.705 309.725 486.464 294.823 457.753C294.348 456.838 295.029 456.159 295.504 455.513L299.152 455.166Z"/><path fill="#092F54" transform="scale(2 2)" d="M302.229 423.652C333.13 421.547 368.426 436.894 396.373 449.395C427.258 463.21 451.852 470.92 482.857 451.04L494.203 462.189C473.942 476.819 453.199 481.437 428.693 477.715C394.566 471.079 353.299 442.509 315.691 439.857C284.961 437.69 269.642 446.856 247.442 465.604L247.398 444.57C266.532 430.679 278.495 425.726 302.229 423.652Z"/><path fill="#139DC9" transform="scale(2 2)" d="M562.297 284.695C564.344 286.19 568.615 292.308 570.165 294.552C584.069 314.777 593.057 337.972 596.412 362.287C603.001 405.128 592.189 448.826 566.383 483.647C563.8 487.11 558.446 495.439 554.716 495.981L552.892 494.308C550.136 491.334 546.937 488.188 544.079 485.27C593.232 428.597 595.048 356.503 550.996 296.224L562.297 284.695Z"/><path fill="#4CC8C7" transform="scale(2 2)" d="M426.98 261.517C455.013 259.401 480.81 264.362 504.18 280.398L493.264 291.482C480.541 284.131 467.676 279.439 453.028 277.457C423.535 273.485 393.685 281.551 370.203 299.837C354.286 312.224 344.603 326.868 336.335 344.902C331.473 344.573 325.197 343.633 320.268 343.032C338.738 295.57 376.688 267.024 426.98 261.517Z"/><path fill="#139DC9" transform="scale(2 2)" d="M537.472 310.299C542.111 313.056 550.475 329.675 552.765 334.592C567.186 364.904 568.76 399.755 557.13 431.244C552.391 444.199 546.217 455.319 537.636 466.062C535.996 468.115 534.174 471.315 531.928 472.357L530.421 471.424L520.924 461.617C555.686 419.254 559.214 366.018 526.291 321.262C529.865 317.618 533.807 313.891 537.472 310.299Z"/><path fill="#2161BB" transform="scale(2 2)" d="M371.186 473.147C415.94 501.444 462.579 507.262 506.792 473.86C510.224 476.99 514.645 481.83 517.968 485.261C514.898 487.864 511.636 490.042 508.334 492.336C494.02 501.903 477.788 508.222 460.775 510.85C423.93 516.586 390.207 506.257 360.456 484.572C364.231 480.786 367.596 477.111 371.186 473.147Z"/><path fill="#2161BB" transform="scale(2 2)" d="M512.405 335.276C519.84 341.825 527.32 362.119 529.347 371.857C534.176 395.751 529.227 420.585 515.607 440.801C514.257 442.84 510.466 448.621 508.381 449.044L506.24 446.941C504.004 444.289 500.4 440.989 497.84 438.503C520.974 408.98 521.236 376.925 500.915 345.977C504.726 342.617 508.674 338.776 512.405 335.276Z"/><path fill="#2161BB" transform="scale(2 2)" d="M436.447 370.728C443.647 368.836 451.308 370.958 456.51 376.284C461.712 381.61 463.654 389.321 461.595 396.476C459.535 403.632 453.793 409.13 446.556 410.875C435.524 413.535 424.408 406.813 421.636 395.806C418.865 384.799 425.471 373.612 436.447 370.728Z"/><path fill="#4CC8C7" transform="scale(2 2)" d="M430.001 295.654L430.475 296C430.047 297.586 415.317 313.612 413.903 314.218C391.747 323.71 381.541 332.756 369.149 353.771C366.06 352.981 362.235 351.597 359.145 350.577C356.738 349.699 356.522 350.089 355.354 348.23C355.672 344.53 363.331 333.225 365.991 329.997C383.79 308.402 402.924 298.941 430.001 295.654Z"/>
</svg>