<?xml version="1.0" encoding="utf-8" ?><svg xmlns="http://www.w3.org/2000/svg" xmlns:xlink="http://www.w3.org/1999/xlink" width="1344" height="768" viewBox="0 0 1344 768"><path fill="#FEFEFE" d="M652.083 43.1695C840.476 32.1441 1002.09 176.06 1012.94 364.509C1023.79 552.957 879.76 714.479 691.348 725.158C503.18 735.824 341.953 591.987 331.117 403.783C320.282 215.579 463.935 54.1806 652.083 43.1695Z"/><path fill="#4AA1A1" d="M597.072 283.805C619.552 261.008 675.891 251.173 707.303 251.233C710.102 251.239 713.769 251.48 715.833 253.629C717.345 255.204 718.018 257.447 717.884 259.6C717.761 261.562 716.866 263.47 715.36 264.751C711.664 267.891 702.541 267.731 697.804 268.912C681.49 272.979 650.835 284.784 648.053 304.219C647.554 307.706 648.516 310.887 650.625 313.679C673.272 343.665 761.845 331.057 788.945 388.555C794.623 400.882 796.788 414.537 795.202 428.015C795.119 428.774 794.942 429.497 794.731 430.229C794.124 425.167 794.946 416.945 794.204 411.375C793.684 407.477 791.796 405.121 792.027 401.518C792.218 398.528 792.311 399.079 790.633 396.77L791.714 398.08L790.662 396.752C790.338 397.699 790.185 397.677 789.462 398.49C786.982 399.594 782.214 399.54 779.328 399.678C775.71 402 782.367 412.444 779.853 419.274C777.652 410.871 779.079 403.179 773.121 393.049C745.149 345.55 675.66 360.285 639.695 325.124C621.972 307.798 636.883 286.598 651.324 273.627C629.384 280.431 614.909 286.704 599.504 303.756L599.303 302.838C596.311 303.886 596.035 312.533 592.282 314.745C589.423 314.521 583.687 308.577 581.388 306.402C584.316 300.898 586.903 296.535 591.084 291.847C593.16 289.52 596.531 286.668 597.072 283.805Z"/><defs><linearGradient id="gradient_0" gradientUnits="userSpaceOnUse" x1="518.09009" y1="481.58276" x2="649.42383" y2="352.78894"><stop offset="0" stop-color="#24408D"/><stop offset="1" stop-color="#3889B1"/></linearGradient></defs><path fill="url(#gradient_0)" d="M597.072 283.805C596.531 286.668 593.16 289.52 591.084 291.847C586.903 296.535 584.316 300.898 581.388 306.402C583.687 308.577 589.423 314.521 592.282 314.745C596.035 312.533 596.311 303.886 599.303 302.838L599.504 303.756C595.942 310.025 593.514 316.245 593.927 323.614C595.987 360.31 659.6 363.965 683.824 385.725C690.549 391.766 695.073 399.26 695.409 408.454C696.773 445.703 633.499 456.621 606.28 465.713C595.859 469.194 585.455 473.385 576.318 479.58C555.454 493.724 562.002 505.083 555.381 511.603C554.088 512.876 552.514 513.363 550.716 513.241C548.315 513.078 545.626 511.93 544.149 510.001C542.559 507.926 542.385 505.211 542.655 502.706C543.41 495.708 546.899 488.472 550.853 482.697C578.117 442.873 637.649 451.334 671.662 423.862C675.659 420.634 679.409 416.286 679.868 410.951C681.429 392.767 646.314 382.417 633.3 377.52C626.646 375.017 620.047 372.385 613.659 369.255C604.471 364.753 595.805 358.957 589.149 351.093C581.146 341.638 576.921 330.002 578.032 317.568C579.252 303.919 586.85 292.469 597.072 283.805Z"/><path fill="#4AA1A1" d="M620.685 295.635C622.376 295.894 622.455 295.876 623.599 297.06C624.154 299.48 621.493 304.167 620.731 306.627C607.354 349.816 712.825 350.85 734.675 393.108C739.536 402.507 740.073 413.692 736.824 423.703C731.862 438.993 718.021 452.165 703.981 459.38C699.502 460.271 696.028 458.424 694.529 454.095C694.538 445.833 713.486 438.248 718.127 430.36C722.05 423.693 727.337 415.273 725.312 406.792C718.641 378.858 678.487 370.312 656.043 358.658C630.578 346.935 594.759 328.336 620.685 295.635Z"/><path fill="#387594" d="M779.853 419.274C782.367 412.444 775.71 402 779.328 399.678C782.214 399.54 786.982 399.594 789.462 398.49C790.185 397.677 790.338 397.699 790.662 396.752L791.714 398.08L790.633 396.77C792.311 399.079 792.218 398.528 792.027 401.518C791.796 405.121 793.684 407.477 794.204 411.375C794.946 416.945 794.124 425.167 794.731 430.229C794.169 444.401 783.359 461.387 773.73 471.391C768.654 476.612 763.152 481.4 757.281 485.706C744.313 495.249 725.42 506.006 710.236 511.932C692.775 515.134 691.655 502.497 708.373 495.042C744.703 478.841 775.258 461.105 779.853 419.274Z"/></svg>