<svg xmlns="http://www.w3.org/2000/svg" viewBox="526 413 468 712">
<path fill="url(#gradient_0)" d="M699.801 508.262C708.914 499.893 725.123 490.287 736.142 484.386C798.839 450.742 869.931 440.228 939.963 434.754C954.524 433.616 969.228 432.699 983.857 432.667C998.049 432.636 1004.48 439.896 1003.73 453.989C1002.99 468.105 992.142 469.91 980.666 471.314C947.173 476.296 913.713 488.366 883.249 502.667C854.818 516.014 799.731 558.005 830.266 592.759C862.526 629.477 928.733 639.888 974.468 651.251C996.155 656.586 1017.63 662.75 1038.84 669.73C1080.61 683.764 1143 715.439 1168.47 752.952C1168.99 757.128 1170.47 762.895 1168.92 766.155L1165.95 766.841C1150.25 769.441 1152.89 772.861 1141.63 759.298C1138.11 755.057 1137.26 755.279 1132.2 755.431C1129.35 750.748 1134.21 748.334 1131.02 743.649L1127.43 745.843L1126 745.204L1125.41 742.487C1127.17 738.31 1127.46 740.231 1131.14 736.626C1127 735.238 1113.15 736.308 1112.15 742.017C1113.85 746.002 1116.23 747.694 1119.43 750.644L1119.58 758.342C1079.93 721.523 1022.61 703.742 970.548 689.694C914.197 674.489 848.658 665.016 803.884 622.206C791.467 610.333 779.458 590.412 780.711 573.015C783.688 531.698 804.985 514.897 831.028 489.579C780.429 503.612 734.88 521.85 699.493 562.081C698.571 545.897 718.862 543.514 713.858 535.6C699.896 534.686 708.623 523.239 702.942 515.82C699.566 515.489 700.03 515.988 696.399 517.844C698.647 514.064 699.734 512.778 699.801 508.262Z"/><path fill="url(#gradient_1)" d="M903.588 822.691C919.252 825.443 930.446 853.33 943.583 854.129C935.14 880.49 918.553 897.062 895.132 911.317C888.926 915.05 882.745 918.919 876.249 922.108C854.366 933.271 837.022 939.674 813.396 947.121L738.627 969.869C688.249 985.477 605.93 1011.28 587.836 1068.44C587.041 1071.03 586.337 1073.65 585.727 1076.3C585.646 1088.97 585.425 1097.35 571.022 1101.71C562.954 1104.15 547.099 1098.88 546.682 1089.57C545.978 1073.84 552.138 1046.54 561.221 1033.91C562.669 1023.93 589.91 997.989 598.382 990.328L607.902 983.143C611.835 980.288 615.509 978.098 619.657 975.585C623.543 972.907 631.405 968.995 635.815 966.637C640.729 964.249 644.879 962.333 649.935 960.279C653.346 958.288 662.003 954.68 665.939 952.906C679.053 947.715 692.36 943.025 705.832 938.849C758.449 923.059 864.16 900.512 900.046 855.055C907.153 846.053 905.62 833.423 903.588 822.691Z"/><path fill="#2863A1" d="M585.727 1076.3C585.646 1088.97 585.425 1097.35 571.022 1101.71C562.954 1104.15 547.099 1098.88 546.682 1089.57C545.978 1073.84 552.138 1046.54 561.221 1033.91L561.262 1034.79C561.708 1046.78 556.32 1085.39 562.315 1093.74C567.155 1096.48 571.731 1096.39 575.351 1091.85C577.56 1084.35 574.897 1075.57 577.057 1070.02L578.392 1069.86C581.913 1074.36 578.423 1078.04 581.791 1078.62C583.759 1077.17 583.494 1077.12 585.727 1076.3Z"/><path fill="#2863A1" d="M635.815 966.637C640.161 978.008 647.085 969.649 654.592 972.71L654.734 974.797C651.863 976.886 623.892 976.509 619.657 975.585C623.543 972.907 631.405 968.995 635.815 966.637Z"/><path fill="#2863A1" d="M876.249 922.108C876.283 919.748 876.556 919.102 875.334 917.117C871.281 915.813 869.984 915.275 866.233 913.267C868.688 912.387 888.182 912.16 893.75 911.49L895.132 911.317C888.926 915.05 882.745 918.919 876.249 922.108Z"/><path fill="#2863A1" d="M665.939 952.906C669.596 958.326 679.769 956.776 687.478 958.827C686.667 959.642 653.85 960.332 649.935 960.279C653.346 958.288 662.003 954.68 665.939 952.906Z"/><path fill="#2863A1" d="M607.902 983.143C608.48 986.817 607.867 986.391 609.875 988.926C614.322 988.383 620.889 978.315 623.035 989.573C618.387 994.065 604.877 990.333 598.382 990.328L607.902 983.143Z"/><path fill="#2863A1" d="M782.911 944.171C787.231 944.072 794.359 943.733 798.156 945.462L797.795 947.284C793.03 948.034 787.645 949.624 783.631 947.491L782.911 944.171Z"/><path fill="#448893" d="M890.459 875.946C893.213 875.65 891.926 875.449 894.461 876.569C892.562 879.422 892.864 878.603 889.041 880.177C886.302 880.105 886.172 880.24 883.537 879.184C885.295 877.093 887.497 876.928 890.459 875.946Z"/><path fill="url(#gradient_2)" d="M660.193 551.712C669.006 537.535 686.128 517.756 699.801 508.262C699.734 512.778 698.647 514.064 696.399 517.844C700.03 515.988 699.566 515.489 702.942 515.82C708.623 523.239 699.896 534.686 713.858 535.6C718.862 543.514 698.571 545.897 699.493 562.081C694.251 570.119 689.525 577.654 686.399 586.839C685.997 588.02 686.186 587.607 685.503 588.592C683.572 606.748 682.74 616.626 688.264 634.298C720.69 720.97 875.704 714.669 931.632 791.093C938.046 798.842 942.964 816.495 945.076 826.487C946.746 841.177 945.394 840.963 943.583 854.129C930.446 853.33 919.252 825.443 903.588 822.691C903.381 822.482 903.173 822.273 902.966 822.064C896.215 807.575 887.715 799.356 873.878 790.636C838.042 768.053 796.783 756.138 757.88 739.896C741.266 733.083 725.282 724.825 710.112 715.217C685.705 699.449 654.949 670.9 648.697 642.018C640.687 620.517 641.291 582.485 654.154 562.987C654.913 559.836 658.389 554.535 660.193 551.712Z"/><path fill="#448893" d="M654.154 562.987C654.494 579.316 659.762 629.555 653.419 639.951C651.284 641.175 651.168 641.319 648.697 642.018C640.687 620.517 641.291 582.485 654.154 562.987Z"/><path fill="#448893" d="M660.193 551.712C669.006 537.535 686.128 517.756 699.801 508.262C699.734 512.778 698.647 514.064 696.399 517.844C694.676 519.112 688.968 525.313 686.571 527.43C682.507 546.361 677.354 535.242 671.527 545.056L670.858 552.503L670.193 552.367L669.911 546.581C668.101 547.883 667.889 548.668 666.77 550.609C664.278 551.888 662.974 551.668 660.193 551.712Z"/><path fill="#448893" d="M688.264 634.298C672.561 631.781 671.698 592.567 685.503 588.592C683.572 606.748 682.74 616.626 688.264 634.298Z"/><path fill="#448893" d="M931.632 791.093C938.046 798.842 942.964 816.495 945.076 826.487C928.403 821.201 931.482 804.229 931.632 791.093Z"/><path fill="#448893" d="M816.944 732.31C822.419 731.948 825.801 730.62 828.693 735.844L826.011 735.887C821.451 735.977 818.68 736.934 816.944 732.31Z"/><path fill="#2863A1" d="M993.785 1088.81C1000.94 1079.83 1000.59 1083.88 1006.42 1078.88C1005.59 1076.77 1005.26 1075.66 1004.66 1073.53C1009.2 1067.38 1020.05 1073.29 1026.3 1070.77C1032.26 1068.36 1040.15 1062.87 1045.32 1059.08C1042.8 1058.49 1041.6 1058.48 1039.75 1056.67L1040.91 1055.02C1046.42 1053.36 1051.33 1059.91 1057.8 1054.27C1060.75 1051.7 1065.2 1052.45 1069.08 1052.8C1041.53 1068.11 1010 1085.49 980.758 1097.94C972.638 1101.4 961.511 1100.61 954.769 1094.08C951.12 1089.46 948.649 1081.26 950.809 1075.7C954.733 1065.59 970.001 1060.47 979.188 1056.36C977.83 1061.73 977.243 1062.26 973.386 1066.04C977.848 1068.72 978.196 1066.93 980.058 1070.44C975.927 1075.7 967.085 1072.1 961.229 1070.62C960.859 1077.31 959.961 1087.58 960.685 1093.94C968.17 1093.77 974.01 1094.7 978.763 1089.54C981.773 1086.28 989.005 1088.12 993.785 1088.81Z"/><path fill="#43A7B6" d="M968.206 757.039C967.424 752.885 966.753 751.241 967.966 747.187C975.946 736.325 996.664 748.778 1004.4 754.696C1027.82 772.618 1048.43 796.979 1052.5 827.138C1054.66 842.288 1052.32 859.639 1045.53 873.191C1039.19 888.619 1027.78 903.741 1014.67 917.816C1007.81 925.188 949.499 979.568 945.027 944.759C943.715 934.548 969.196 925.278 978.711 917.687C1026.61 879.423 1051.32 821.631 994.539 777.749C987.832 772.566 972.644 763.646 968.206 757.039Z"/><path fill="#55B7AF" d="M968.206 757.039C967.424 752.885 966.753 751.241 967.966 747.187C975.946 736.325 996.664 748.778 1004.4 754.696C1027.82 772.618 1048.43 796.979 1052.5 827.138C1054.66 842.288 1052.32 859.639 1045.53 873.191C1045.17 872.962 1042.58 871.14 1042.58 870.933C1043.18 853.218 1043.37 835.439 1041.21 817.813C1040.42 811.403 1039.29 805.119 1037.99 798.806C1035.29 796.607 1030.25 793.067 1028.73 790.039C1021.55 775.756 993.141 747.506 976.205 747.695C970.623 751.336 975.1 755.091 968.206 757.039Z"/>
</svg>